<mxfile host="app.diagrams.net" modified="2022-02-12T13:01:01.409Z" agent="5.0 (Windows NT 10.0; Win64; x64) AppleWebKit/537.36 (KHTML, like Gecko) Chrome/98.0.4758.82 Safari/537.36" etag="ql5lyYsAgDBYMbgXylHU" version="16.5.5" type="github">
  <diagram id="EHXZmY3AiqGW7LaRiptZ" name="Page-1">
    <mxGraphModel dx="2188" dy="1188" grid="1" gridSize="10" guides="1" tooltips="1" connect="1" arrows="1" fold="1" page="1" pageScale="1" pageWidth="827" pageHeight="1169" math="0" shadow="0">
      <root>
        <mxCell id="0" />
        <mxCell id="1" parent="0" />
        <mxCell id="gm9-jVMxlqeCwL_lTwc6-59" value="" style="rounded=0;whiteSpace=wrap;html=1;labelBackgroundColor=none;labelBorderColor=none;fontSize=30;fontColor=#333333;fillColor=#44473D;strokeColor=#666666;" vertex="1" parent="1">
          <mxGeometry width="1650" height="1160" as="geometry" />
        </mxCell>
        <mxCell id="gm9-jVMxlqeCwL_lTwc6-55" value="" style="shape=image;verticalLabelPosition=bottom;labelBackgroundColor=default;verticalAlign=top;aspect=fixed;imageAspect=0;image=data:image/png,iVBORw0KGgoAAAANSUhEUgAABL0AAAIhCAYAAACrNcijAAAgAElEQVR4nOzdf3SU5YH3/7eaGLGH4YF9EqkkGzfEVgn2SLSl4eGRsFTDuhp0S9N2EbbNRtoUtuKyVR6ssvYHxbZZ3F0iLUR2JbW22bTUwFpi1xLZHmbrjwlbMqyVgTWdoJjZhsPkKzjyw+8fSUgC4YcCGTK8X+fMIXNd949rOOe+zn1/7uu+7oveeuutd999913effddAI79u8exZX3rJEmSJEmSpLPpoosuGvDfY8uO/bvnk9YTcvUNs44cOXL074H+PRGDMEmSJEmSJL1XfQOtHn1zphMFYBdffPGA61188cW9oVdP0DVixIiz3nBJkiRJkiTpXNi3bx/QG4BddNFFvPvuu12h15EjR/qN9pIkSZIkSZKGgiNHjnDRRRdx5MiRfiO/Lh5oLi9JkiRJkiRpKDjRXPVpPaO8ev6VJEmSJEmShoqekV7Q9WjjxRdf3DXqqyfwOnLkCIcPH05yMyVJkiRJkqTTd/jw4aPZVt9569MMvSRJkiRJkjRU9c2zLrroot6J7PumYD1JmCRJkiRJkjQU9Dze2DOZPXSFX/1Geh06dCjJzZQkSZIkSZJO36FDh46GXj1ze7377rtdc3o5kb0kSZIkSZKGor65Vt+PE9lLkiRJkiRpyDrRRPYX9xQ6p5ckSZIkSZKGmoGyrSNHjnBxzwI9Q78kSZIkSZKkoeLYTKvn74uPfe5RkiRJkiRJGipONF/9xT2VTmQvSZIkSZKkoebYXKvfRPZ9F5IkSZIkSZKGimOzraOPNw60gCRJkiRJkjRUDJRrXXyqBSRJkiRJkqTz1YnyrItPVilJkiRJkiQNBcfmWxcbeEmSJEmSJCkVHPf2xoEqJEmSJEmSpPPdSR9vlCRJkiRJklKJoZckSZIkSZJSjqGXJEmSJEmSUs7gh14HWnnh+c00v36obyGtL21m8/aOQW+ONKR5PEnSqXX3la/8/mgBrS9t5oXfHTi6SMf2zWwO7ebQgBsAOETr8/VseKXzFDtr5bn77mPt1lMtJynVHPj9K7zw/GY2P7+ZF17p4MCpVzk9v3uO++5bS/O+QVpPklLI4Ide73Twyr9u4KmfPs/uo2eWh+h4ZQMbXvcEUXpPPJ4k6dSGpdG5eQPNu7v7xUO72Va3gfptPSFXB60vbaD5LUg74UYOcvDgmTZkN1tWr2JL25luR9L55sArP+PvH/kZr/x/AAf43b8t47s/asGzMUlKruQ93vi7Rn4W3H3i+gMdtO6MENm5m84jg9csaUg61fHUuZvIzgiR37VzoOd4equdyM52DhzpZPfOCJHfdd+R7F62tf2Y+5OHepbrsw1JGhJGMWY8NO/pHgG7p5VmgB2v8yYAnbS3wNjRV3Qvf4jO1yNEdrbS/lbPNtK54prruWZUbyx2oL21e5kDdLZF+iwLcPDoNjoO0N2HtvL6jgivRyPs3nfiMWWShppOdm7dQseUmfz5n97ETVNKmFl2B1eEnqO5rev8qfeYP0D7zgitv++ks62r/MDvW4nsjNCVyx+g43fd10DHdhM952Kvdx4zKrVnnZ5tSJJ6nPiG5jl205+U0Lr+Z2weO4+bruxfd6htM2v+6XniY68j/+1XWFWfz5wvzmT8iOS0VTrfnex46mypp3pdB/kTc+G/X+CpYSXMm/MxRv1+G6u+v4Xho0dxxfB04nsiDPuj8aS3vw3DD9Kxo4NrPvc33DFuGOxt5qkVG9g99lqu6oiwio9yzxenMSZpPYgkvRfDyModDy+/SQe5sHsngT+9jUmbX2H3729iDG/SygQmjU4DOmj+UTUbXs/n2uwOIi/BR7/8BaZlHyDStIqnRs/j25/IpWPrU1T/sJVRV48iPdHBm7/rYNL8bzPtA117bF2/hrWjA6R3vknk0kncM2sMzb9sJgLw8i+5bMRnGTNieBL/TySdPcMZ+cEx0NzCttfHMOHKYZA1ibnfngQcoKVuFeuGz+X//Uk+afteYeP3N3PVgnI6mlbx1H+PIjdrFOkHO4jszWJ8TgedB3v6jincM/8mxgDQyoYn1vaesxXN4wufyCXt0G42P76G59/K57o/OsArwXry58xj5nj7F0mCJIZew8ZO4bZPtFC98QXGl1/bp6aTbU0bOFA0jwWfyCWNDnJ/sIx1L36U8Z/ITVZzpfPaiY+nQ/C/rmfmF8aQnzUM9max9lvbaN33MUYBkMttn5/DhJHQ8etVLPvJFcz7dgm5HCLyr4tZ9Xo7d4zLouUXT9F+9JjcTdajf8+Lr05izLhhyfnBkvQejRp9FWN2vE77gU4O7IgwduJscgs30PLmAQ7wOpGrxzJzOBxo+SVP7ZnEvC9PIzcNdl/x9/z9ixEmZY/ps7VWmtc3k/uZRcwpHAXvvMLPvrqm3/5y/7S8q25vM2u/tZmdB6Zx293DGHZfNZTOZdofDu7vl3Rujfm/s5kTr2fdo0vYMPoarpt4E9OK8hl+8TDGjp9E509a2f0n+Yz67220XDmBaVdCO8DEzzLvllw4FGHD4lV0fGQR8wpHwe9fYNUjr9C+ryf0uoJpd81lUhYc2rGBb63ewisTc8nd+RwbDvT2WR25a1m27gU+On4aXjlJUhJDL0gjt/hPuemRVWwIzeO6o+UddPwGxk4c0924UeRenU/njg46ycV7FtJATnQ8pTF8ZDrbnv0Xfvk/b8OROG+S1aeeow85p2dcRm+XkEZ6Rs8C7bz5EsRHN7Lmv7tK4p2Q9Y6P5kgaQrKuZCzPs/v18Rz4zSTyPzmMMQcnseq/dzP+8m2QO4FRQOueF6Azi8Z/2tm1Xmccsg70f5RoXwe7O8dw1eiu2wdcOuz485OL07v/BdjNQbtMKbVdPIrxt89lfEkHrdubeb5xFY+23EH5FyYx5o+uYVLnvxD53STG/HcLY26Yxhi6Q6+eyWbS0hkGvX1HWjqX9dvBZQzrPjdLyxpDLk/x5t7PMvx/WuDqSUdH34/KvYb8zlfo2IehlySR1NALuDSfaZ+cxHd/soHO4cDo7iYNh0MHDx5t3oH9b0JaehIbKg0BAx5PnTSvq+bFrLnMnZHPsM5m1n5z23vccNcxmft/7uBTH+lzWZfuKC9JQ0jaFYz5SCfbglto/ch1TBkGw664kvxnt7J1VCeTbszqWuyS4ZB7E3d86ro+QVY6w/q+h+3idNKJc9D5DSUB0MErz7cQ/6OP8rE/HEXu9dOYkzOcVY808krbJMZk5zN+Sif/+spmOoNjmLBgDJzxFPdjSE/r7rPeOcTRK6cDnbxJOunJm7lZks4rSe8Oh40r4VPjO2h9vafkCnJvHM6W0DY6jgAHIrT8ZyfX5F/JcOBA2ytE9nq7VBrI8cdTnM7/gWEfCDDsYujcvZu973mrXcdky4vbaGcYwzKgPbyN9jN+i5kkDabhZOWOoeU3LVxxdffI8T8YwzW8wAst+Vx5RVeQf8UffozhLS+y7U0YNmwYxLax7c1jOrzhVzL2mk5atkc4cAQO7NnNSV4lcpzO/Z7HSKllGHQ8T+OWbex+6xBwiI7WnbzJGIYPA0jjqmumEf+359hydRHjrzzF5ga0l927O7u2vWMbLcOv4cqs7j4r+ALb9gIcILK9hc5rxnKlj8dIEpDskV4ADOOaP76TCS1ru96kRBr508q5o66WZYvqgVFcM6WcO24cBXSy81drWDesnL+ZcQ2OM5GOdezxNIYJ02/ilX/5Lvc9PZz863NJo4X2vbyHyDuN/GlfYOb+taxd0kgnw8m6fhqf/ci5+g2SdG6MybkGiDN2zKieEnLHD4fOsYz5g66StLHT+EJZJ2trl9DYCcNHT2DaZwqh3wOOoyic8Vl+V7OKJf8Go278GKd3DZvFmP8zijVrFhP/8weZc71XpVJqGMY1f1rOtPqnWPNwfdcYrj+4hps+dwcf6+lbcsfyseHP0fqRfEadbFMnNIb0tqf4+j9H6Byez7Q/v4n8NGDsNMpn/JDab91HPTDqmpsov/Nj73MfkpR6LopGo+8ePHiQgwcP8s477zB+/Phkt6nXkUMcujjtfEjmpKHvCGc+tvPIIQ6RRlrSx4hK0rl36B1Iu/QEle8c4MClwxh2BDjQQv3D6xj55QeZln06Gz4EaZ7dSKlqwL7jUIQNi39J1v1zjwZh78tJzufsWiRdyFpaWrj00ktJT08nPT2dtLS0rk+yG3ZSBl7S2XM2giqPSUkXkBMGXhyidXM1a3dexceuuYyOl5uJFN7GvNMJvMCrUinFHdt3dGxvZPN/NLOt8DYWnEngBSc9n7NrkaTjnd8jvSRJks5Tna9H2B0/RNrlWYz5w1FOuyBpQAd+9wIvtgcY/5FrGHXCMF2SdCaG5kgvSZKk89TwK/O55n1NSC3pQjLsDz/GTX+Y7FZI0oXJmXkkSZIkSZKUcgy9JEmSJEmSlHIMvSRJkiRJkpRyDL0kSZIkSZKUcgy9JEmSJEmSlHIMvSRJkiRJkpRyDL0kSZIkSZKUcgy9JEmSJEmSlHIMvSRJkiRJkpRyDL0kSZIkSZKUcgy9JEmSJEmSlHIMvSRJkiRJkpRyDL0kSZIkSZKUcgy9JEmSJEmSlHIMvSRJkiRJkpRyDL0kSZIkSZKUcgy9JEmSJEmSlHIMvSRJkiRJkpRyDL0kSZIkSZKUctKOLWhtbU1GOyRJkiRJkqSz5rjQKzc3NxntkCRJkiRJkt6zlpaWAct9vFGSJEmSJEkpx9BLkiRJkiRJKcfQS5IkSZIkSSnH0EuSJEmSJEkpx9BLkiRJkiRJKcfQS5IkSZIkSSnH0EuSJEmSJEkpx9BLkiRJkiRJKcfQS5IkSZIkSSnH0EuSJEmSJEkpx9BLkiRJkiRJKcfQS5IkSZIkSSnH0EuSJEmSJEkpx9BLkiRJkiRJKcfQS5IkSZIkSSnH0EuSJEmSJEkpx9BL0jHihOpraGpNdjskSZIkSXr/khd67Y0QXF/NgunVhJLWCGmoi9EwP4/K9bHja9ZXkje/geNrTiVBW9NSwh1no32SdD5JENveSO2D5SwaoN/sZ3+Y2vlTyMvLIy9vIrcsriOy//TqQ/+Y111+7GcBjbGudoSfWMAtE7vKp5QvpantHP1kSYOjuZq8vIGua0JU5+VR3ZyENkmSkhF6xWladgsTp3+JHze+TMOrg98CSZJ0gXm1jvKp1zLzuz9nU3MT+066cJym75Tz9IeXs3XXLnbtqGd+oopFPwqfVn3hX+1i167+n60ry8ic+2mKMyERXEF5w9Us+8Uudu3ayuPTopQ/VEf0HP8XSJIkXWiSMtJr7J89zuYtz/LoX96QjN1LF5zY9iChtkSfkjiRYJDwnu6vh2OEG+uoXd9EOPZ2v3XjO4OE98SJNTdQuz7M0a3EwjStr+1e5/h9xncGaXiijsbmKPG9EYLbYvRrQWuIxvpaGprCxA4fu7/ECesl6X0JFLLwp//F82se4I6rTrFsIsyWJwqZc2chAYBLcij9bBmhnwYJn079caJs/HGYu0uLyCBB6PlqCu8qpTAAECB/1t0sDNfSuP3s/VxJkiQlJfQKkPOhHDIuGfw9Sxeqt7evZuayxt5HHfc0UTXradoygP0hqssm8qX1ERJvvEzt/YtY+1rvupFnZrFoXjmzvrGFSCxGHIg1LWHmbUvZGEmQiGxk6W0zqW7ujbSi6xdw85+vYEtHnGjjUsr/7C+Z9f0g8b71f11HS0eCHc8u5bayakL7++xvYSWVf7eRaEc7W1aXc9vfNh1dV5Lel9H5FIzMOL1l98aIkk92dp+y7Ksp2Z7oCu9PVX+MRLCOKmZTMg4gTqwNSLuszxI55Hw0TMtr7/2BdEmSJJ1YWrIbIOnMtTWtpeaNEf3K9v22d4KYnMl3UHLfzwnuKaV0NMRe/DmNM+/gkZEQrV9B1diVbP12SdeIhblham67vf+F2+TFrL+3kAyARJCq+0MUVdez8MauC8jZ/7eKmV9cQeHmhRQlmqi5Zyd3b1hPxTiACmZ/fAnX1ndvq7WOJfdcxtdeXkbJSIDZ3PDwtax+royVt2d2LXPjfNb07K8kh1lTtxD+ajFFp3m9Kkln7rIzrO8Ro/HJOmaUbyYHgEyyP5xJ2xvtQHefRzvtr0HCUa3SEPcyT6+qOWZerygvAz7fIknJYeglpYBA9ngKrgv0K4u/tQl2dn8ZXcwdMxfwsxdjlN6eQejfGymb9ggBYgSDTZQUP0Lv2llkXUW/uWWy83M4mje9GqKO6ay5sTeByrhxKtNjlYReXUgRYTYynZXjetfPGJF19O9YeAtNk3P49CtBgt1liUARja9F6bkA7Le/jMsIECW2Fxj9/v5/JClptj/N6tfuZtnk3j6z8M4HGPvJJSwZNZ/p/zvOlvoVNMSgZGTgJBuSdP7LIv+6AvL7lWUQSVJrJEmGXlJKCOQXUlSU2a8s9j9re0MvAhSVzKZyXZDYlABb6mcz/asBIEZioGdxTuYQxApz6H9plknm5BixQ937Ptn6hxNwOEZkW7g32PrAVBaPzTzZWpI0yN4+w3qABMGG1WR+rp6CvsXZpTy6IZO6dWHCHQEmLVnOiM8vglEOZ5WGthwKiooo7FeW4ZvqJSmJDL2kC0Rg8nQq7l7L04VZ1M6aysLuCZQzsyH+1ulcvHUblUlRYwttiVJyeq7PEm1EflVE/tcBMiki0hWmDXD9lnF5FlxSQOncsu5HfSTpPDMykxx+TlsbFPbM29W2g8bJOSw+nfoerU+zet0M7t40QG+XWUTZ3KKuv7fXsJQZLBt3/GKSJEl6/5Ly9kZJSZBRyNTKEEu/UUtFSVH3SK0MCqfMI/KDWpq6h2fFX93Iz585yXZyp/LpW2tY/WS4e3L5OKFVVdTc+mmm5gK5RcwormFtfaSr/nCMpsaNR1cPFE2n4rdVVK3rfYAyun4p1S85Vb2kJNobIdTa3Q9lFDDpL0KsXRfqnt8wSsNTdRQWF3SF9aeqByBBqKGW2F/OoOjyE+xzf5xosIbKeRuZ/vXZ/UeDSZIk6Yw50ku6YGRQOLmMzHqY+tE+83EVzWfNpxbwpYl5RIGcmfMomXyy7WRSunQ9+xZ/ieu/DzlE4aMPs35pafeMXDmUfW0Nkftncf2DMcgsYt7MPpdylxex8IcPUPXQTPL+YQT5+/fBx+ez/FvOZSMpecI/msXMyNf4dVUJmQQo/spKIvPv5dqpGeTvj5CYsozHP9PTl52qHtjbRN3yTGZvGjjKiq2vZOI92ymcWcbd319DyYd8tFGSJOlsuygajb578OBBDh48yDvvvMP48eOT3SZJ50j8uSXcHJrO5q8UHf/kYSJO/HCAwIlGJAwkESdOgMAJrtUS8TgEAiSeW8L1627g1ytK6Tdz1/448UtOvL4kJd2p+in7MUmSpKRraWnh0ksvJT09nfT0dNLS0khLS/PxRumCkIgTjwWpfSzEnE8UDjTVFmS8x8CrZ53jNhajcXE5VY1djzcm2ppY/dhGSm8t4rip6i/3QlHSee5U/ZT9mCRJ0nnLxxulC0DsuYeY+PB2Sr+0nEcmnOurs0xKvjKf9r+rYsHynSSyCpk690keKfHtjJIkSZKkwePjjZIkSZIkSRqyfLxRkiRJkiRJFwxDL0mSJEmSJKUcQy9JkiRJkiSlHEMvSZIkSZIkpRxDL0mSJEmSJKUcQy9JkiRJkiSlHEMvSZIkSZIkpRxDL0mSJEmSJKUcQy9JkiRJkiSlHEMvSZIkSZIkpRxDL0mSJEmSJKUcQy9JkiRJkiSlHEMvSZIkSZIkpRxDL0mSJEmSJKUcQy9JkiRJkiSlnLRjC1pbW5PRDkmSJEmSJOmsOS70ys3NTUY7JEmSJEmSpPespaVlwHIfb5QkSZIkSVLKMfSSJEmSJElSyjH0kiRJkiRJUsox9JIkSZIkSVLKMfSSJEmSJElSyjH0kiRJkiRJUsox9JIkSZIkSVLKMfSSJEmSJElSyjH0kiRJkiRJUsox9JIkSZIkSVLKMfSSJEmSJElSyjH0kiRJkiRJUsox9JIkSZIkSVLKMfSSJEmSJElSyjH0kiRJkiRJUsox9JIkSZIkSVLKMfSSRPS5Gmqeiya7GZIkSZIknTXJCb3aGllaPoW8vDzy8iZyyz21hPcnpSXSEBejYX4eletjx9esryRvfgPH1wywle1LWbq9e8lYIwvybqdm+9ltqSSdNxJhqj+ZR94/hk68zP4wtfP7nKssriOy//Tr49tqWTB9Ynf9FMqXNXHsrYX4q41U3zeLmVPzqG4+mz9Q0qBrriYvr5rje5UQ1Xke45KULIMfeiWCVH3yIRIz69m1axe7dtQzP20F5dVBEoPeGEnHySxm4YbHKBuX7IZI0rmQILxmCVUnvQCN0/Sdcp7+8HK29pyrJKpY9KPw6dW31rFgxibGf+cXXec6W5dzw4vlLKnvjb0SzdWUz/4x3PowK5/eSsVHztXvlSRJunANfui1PUQ1cyi7NbPr+yU5lH62jFhrjPigN0a6wMTCNK2vpa4xRPREB1wiTnxfnER3Ch3fGSS8p08knYgRDoaJJXr+jhA/HCPcWEdNfSPh7gFj8dYgDU/U0tAUJnb4XP4oSXoPttey5N+msnDuSZZJhNnyRCFz7iwkAEfPVUI/DRI+jfrYbzbRdOenmXFdoGt7gUJK7yqh6Y3uDjIRoubBTUz93krmFeeTGQiQccm5+8mSzjdxos2N1D3RQNP20xmTL0l6vwY/9Jowj12/nkdBn6Loa2EyczMJDHpjpAtHormambdVseWNBPHm1dx18wIa2gZYcG+QFbNWENzb9TXyzCxWvBgfuH5vkBWzFlH511VsbI3DKz+mfGI5VcsXseD7W2hPtLNldTm3/W2Tobak80CYmgc3MvVvKyj6wEkW2xsjSj7Z2X3Ksq+mZHuia1T6Keozb1/JrqoSMo9WJmiLhCj+YHfJ9iBrc8oo+WCExvoa6hq9OSBdOKI0LLyZe59qIZ7YwcZv3sbMfwz5xIsknSNpyW4AbQ1UfQcW1hWRkey2SENUW9Naat4Y0a9s32/7JFqJICu+uJHp/7SeinEAFRTnzGLWuhClf1V4hnvPZ87fLqNkJEAZOfHrqXxjJVu/XdIVZN96NZU3/Yzgl4spyTz5liTpXIr+qIqnJy+m/roMwk2nWvqyM6zvlWiuoap+Bgs35QAQa2sh1h5jycJ8Cqfkk2j6EotWlVFfO4/Cy097s5LOOy/z9KqaY+b1ivIycEPPt/olLLjka73nSXfdwJLxq2n81EpKRw9ycyXpApDc0Gt/iOp7vglfracsN6ktkYa0QPZ4Cq7rP1Yy/tYm2Nn95dUQdbEC5u8LEgz2LJFD7LdtxDjT0CuHzJFHW0JmDkCfkZtpAAkSjmKQlExtDSz9QQEP1xUO7k22tgbu/+Impn7vSYq6A632thCMWMiyNWV0xWAljJ8/hdXPlbHydu8OSENXFvnXFZDfryyDyNG/Y2wPNlGU/WnCR0/IEgQmNxJ9AzD0kqSzLomhV5SGByvZVLySJ2/PSV4zpBQQyC+kqKj/hVLsf9b2hl6HIDZ2H9Ft4T7D5/NZXJztCEtJF4AoDcsWkPjTNST+M0gQiLwBECYYDFBQlD/AFAtvn2Kbp6qn3829eRP69LYZWTAhn96znxwmTC5iwWtRwNBLGrpyKCgqOuZ2Yka/kV+JBBCLEN7W2yeMmLyY/FGD00JJutAkKfSKE/zOvay9aiVP/tUg33GVLkQZGRTszGHqX1RQ5AEn6UITj/H2RxYziQjhbV1F0T0AEcLbcsg+NvQamUkOP6etDQp75u1q20Hj5BwWn049wP4IdQ/ey47P1fPoMTf3cnILYV3XSNueiCu+N0Jmmh20lNoyCIwECkqp+Iw3/SVpMAz+RPYkCP1jOQv2zGG5gZc0OMaVMLu4hqpVoaMTysdfqmHpuugpV834QAGN/x6i691CCaLBXx4zV4UknecChZTNraCiz2fGBGDCDCrmFneNuNobIdTa3UNmFDDpL0KsXdczuXSUhqfqKCwu6Fr2VPVEaXhwFnVXLeeRAUazB4qmU/HiWupe6t7f3kbq/jmLOR/PP25ZSakkQFFJBZHlVb0vEzocpWFZNSHf+CNJ58Tgj/Ta08jq5SFihJiybkG/qoU/2cW8CYPeIukCkENZVT3xB+/l+okZ5F8eIfFHFTz8tVPfZSz4zMMsvLuSiXmVQA4l5cXk037umyxJgyj8o1nMjHyNX1eVkEmA4q+sJDL/Xq6dmkH+/giJKct4/DM9754+RX1zAwvWxYCZXLu8715KeHTLSkpHF7Hwh2UsqbievFYgM5+yrzxGxQRvBUqpLmPyQp78ahVLPplH1ch83t4LRV9aziO+xl6SzomLotHouwcPHuTgwYO88847jB8/PtltknQuJeLEDwcIvMc3hCXicfhAgIxLzk2zJOm8tD9O/JIAgRPlUaeqP4VEPA6BgCPfpQuQx78knT0tLS1ceumlpKenk56eTlpaWtcn2Q2TNMgyAgNM2Hw6q3kLUtIF6PJT9Jmnqj8F+1bpwuXxL0nnXhLm9JIkSZIkSZLOLUMvSZIkSZIkpRxDL0mSJEmSJKUcQy9JkiRJkiSlHEMvSZIkSZIkpRxDL0mSJEmSJKUcQy9JkiRJkiSlHEMvSZIkSZIkpRxDL0mSJEmSJKUcQy9JkiRJkiSlHEMvSZIkSZIkpRxDL0mSJEmSJKUcQy9JkiRJkiSlHEMvSZIkSZIkpRxDL0mSJEmSJKUcQy9JkiRJkiSlHEMvSZIkSZIkpZy0YwtaW1uT0Q5JkiRJkiTprDku9MrNzU1GOyRJkiRJkqT3rKWlZcByH2+UJEmSJElSyjH0kiRJkiRJUsox9JIkSZIkSVLKMfSSJEmSJElSyjH0kiRJkiRJUsox9JIkSZIkSVLKMfSSJEmSJElSyjH0kiRJkiRJUsox9JIkSZIkSVLKMfSSJEmSJElSyjH0kiRJkiRJUsox9JIkSZIkSVLKMYwsYPMAACAASURBVPSSJEmSJElSyjH0kiRJkiRJUsox9JIkSZIkSVLKMfSSJEmSJElSyjH0ki5g8eY6ap6LJrsZkiRJkiSddckJvdoaWVo+hby8PPLyplC+rAkvu6X3I0bD/Dwq18cGrn1mAXm31RDuKdgfJ76/tz7Rtoml2wdeFyC8ciJ5DzYRP3sNlqSkir/aSPV9s5g5NY/q5pMs2NbUe64y8RYWPBEmcYJFY88sYGJeJQ17+pcn9oRpfGIJ5fc1cOKeVlJKaK4mL6+a0ICVYaon5rHkOc+oJGmwDX7olQhR/cWHSMysZ9euXeza8QOmt5WzpN7YSzrbMosXsr66jILu76HHr+f6xwc+HRtIwWeeZP2Xiwmcm+ZJ0qBKNFdTPvvHcOvDrHx6KxUfOdGSUeoeup/223/Qda6yYTFZ/1JO1a8GiL32NPLNh48NtSLUlU/h2s9W8fNfhWjaf/xqki4kBcyuXc/8Ys+oJGmwDX7oFU8QKH2Eilszu75fksPUkhKagtu9CyqdZYl4nHg8QYI4kWCQ8BvAG2GCwUj/0VuxME3ra6lrDBHtUxHviBGPdxUk9oQJ7uy7Vtc2I3u7v+0MEt6TIN4apOGJWhqC0a59HI4Rbqyjpr6RUKt3OCUlSSJEzYObmPq9lcwrziczECDjkhMs2xrk6aYy5tyZ0/U9s5i7v1BITWPwmJGvcZqql8LnFlLSr3wEhX+znv/atIYHSrPPwY+RNLTEaf99nH2eBknSoBv80CuziNlzi8k5WpAgGmmj4MPZZA56Y6TUFn9xBbO+HyTOPtq2hYnsAfZECG9rY1/PQk1VlC+u4+U3EkTW38uUz/c+Dhl5Zhaznon0bqv77+5aGmfNovG13mUXzavkoafCtCfa2fLdKdz8YBVVdz/E061xiPyMe6eWU7N9cH67JPWzPcjanDJKPhihsb6GusYwscMnWLYjRpDL+hVlZo+HZ8P9pmOIP1fFkv2LeeDOnP7rk0n+uAAZZ7P9koaw/udMkqTBk5a0Pbc2UdMYoT1cR1NGBY/9bcGp15H0PuVQPLeCQGIptcygYm4hQNfoyg9+modXlHYF0YkCuHYF4dYKCnLfx25KFvLo3O5jefIIbr/taUZsWE/FOIAKCjPyqHw+TMU4j3dJgyvW1kKsPcaShfkUTskn0fQlFq0qo752HoWXH7PwB3MoYQuxvcDIrqJ4exRiOb3zeu0PsmJxOwt/UkImDYP3QyRJknTakhd6BbIpuA6yKCT8000EX5tB/jjviUqD7sPZvSMvMzIYQZBYB/A+Qq/sD2b1fhmVRTbZZI3qs0AaxA6daCpoSTp32ttCMGIhy9aUdfd5JYyfP4XVz5Wx8vZjxpqPLuHue9dSeV81lBfCq0/z438OwuTC7lHpCULfX0p00WMszgaOmcBekiRJ54fkvL0RYGQ+RUXFlM5dxsp7R7DksUbn9JIkSedGRhZMyO8zvUIOEyYX0fjaQC/SyaDwr9bw5MwA0W1h2kdX8PCiYsjNYgSQeGkFS54pZOroNoLBIMHQDuLE2RHqmttQkiRJ54fBH+nV2kRNI5T0mdcrkJUDL0ZpB+f1kiRJZ11ObiGsayNG4dFzjfjeCJlpJxplHiC/ZDb5XUvSeF8tZdMWEgCi+0Yw41MjiG8Ld82BuC9KnDjRcJjwBwsoGO3IdUmSpPPB4I/0CkD08RU0vNTz+pI4waaNZM4s7D6xlHSuZGYWQUec9zMOIePyLGgMEu6e+DkeDLLprLZOks6dQNF0Kl5cS13P+cfeRur+OYs5H+8++9gbGeANswnisTAN36hk6eFHmVcSACBnWgUVc/t8Zv8x2WTzx7MrKJsQGLwfJUmSpJMa/NBrZDELa2bQ8pXrmTj9Fqbk3cyS2GyenFfkW46k96nxnonk5eX1+VTSMMAcMzkfmU7RM+Vce4L6kwlMq2DluDpuvzqPvLyJVD7X7shMSUPH5UUs/GEZ0a9c39VPTq8i8ZXlVEzoOvsI/2gWM/8h2GeqhRDVeddy8+wqXs6ZT/23Szn2HY2S1F8VM/udj+WR94+hZDdKki5oF0Wj0XcPHjzIwYMHeeeddxg/fvyg7TwRj8MHAmRcMmi7lHQ4QTyRQeDYt5Wdrv1x4pcECJhSSxqiEvE4BALebJMkSUoRLS0tXHrppaSnp5Oenk5aWlrXJ5mNygj4CIA06C45g8AL4PIAHrmShjLPPyRJki4MyXt7oyRJkiRJknSOGHpJkiRJkiQp5Rh6SZIkSZIkKeUYekmSJEmSJCnlGHpJkiRJkiQp5Rh6SZIkSZIkKeUYekmSJEmSJCnlGHpJkiRJkiQp5Rh6SZIkSZIkKeUYekmSJEmSJCnlGHpJkiRJkiQp5Rh6SZIkSZIkKeUYekmSJEmSJCnlGHpJkiRJkiQp5Rh6SZIkSZIkKeUYekmSJEmSJCnlGHpJkiRJkiQp5aQdW9Da2pqMdkiSJEmSJElnzXGhV25ubjLaIUmSJEmSJL1nLS0tA5b7eKMkSZIkSZJSjqGXJEmSJEmSUo6hlyRJkiRJklKOoZckSZIkSZJSjqGXJEmSJEmSUo6hlyRJkiRJklKOoZckSZIkSZJSjqGXJEmSJEmSUo6hlyRJkiRJklKOoZckSZIkSZJSjqGXJEmSJEmSUo6hlyRJkiRJklKOoZckSZIkSZJSjqGXJEmSJEmSUo6hlyRJkiRJklKOoZckSZIkSZJSjqGXpNMWb66jpj5EHIAoTatqaGpNcqMkSZIkSRpA0kOv2DMLmJhXScOeZLdEGopiNMzPIy+v9zPlk5UsXR8hcQ72lmjbxNKmtu5txwgvW0q4o6suvHIieQ82dQdiknS+SRB+YgG3TOzuK8uX0tR2ksX3h6mdP6W7b53ILYvriOw/Zpm9EYLrq1kwvZrQMVXxbbUsmD6xe/0plC9rItpb268teVPLWfpcFElDWHN1v/OxvIm3MOu+GkJ7k90wSbqwJTf02tPINx9uIJbURkhDX8nSZ9m6dStbt26l/utTaf/GLJY2DW78VPCZJ1n/5WICg7pXSTo9ieAKyhuuZtkvdrFr11Yenxal/KE6Bo6a4jR9p5ynP7ycrbt2sWtHPfMTVSz6Ubi3ftktTJz+JX7c+DINrx6zemsdC2ZsYvx3fsGuXbvYtXU5N7xYzpL6rr1F6xdw+/PjWf6LXezatYut37mB0N1LqHPkrDTEzWNN9/nY1l88zt2ZG5lZUUsk2c2SpAtYEkOvOE3VS+FzCylJXiOk1PCBEQQCAQKBAJnjyphzV4zabf1PseKtIRrra2loChM7fLSUSDBMLB4jtL6Whu0JYtuDhNr6jhOLEwkGCZ9iNGa8I0Y83h20JWKEg5F+o77iO4MEd3aVJPaEu/6OhWmsr6GusadNcaLBBmqfaKBpu3G4pLMlQej5agrvKqUwABAgf9bdLAzX0rh9oMXDbHmikDl3FnYF+ZfkUPrZMkI/DdITe439s8fZvOVZHv3LG45bPfabTTTd+WlmXNd9GyBQSOldJTS9EQNiNDc1UTpzBgU91TeWMqekiVjH2f7dkgbXZUfPxwKBHIpnz6GkeQvb+55DHY4Rbmqgtr6RUKvj4yXpXEta6BV/rool+xfzwJ05yWqClKKiRJqh7EP5vSXrF3DzX9fR0pFgx7NLua2smtB+gAiNsxZR+flZLP33CO3tcd7evpqZyxp7R2DuaaJq1tO0ZZx8r5FnZjHrme6gbW+QFbMa+93Z7Fsff3EFs+6rZMHyjUQ7IFJfzsS7q6i6bwHV/9FOomMLqz9/G0ue82RQ0tkQJ9YGpF3WpyyHnI+GaXltgIB9b4wo+WRn9ynLvpqS7Ynux7sD5Hwoh4xLBt5b5u0r2VVVQubRkgRtkRDFH8wEMildsYtHb+2tJdHGjlAxmaPe7++TdD5KRFoIjbuBsaO7C/aHqC67japftZPoeJnVn7uZBet9tFmSzqW0pOx1f5AVi9tZ+JMSMmlIShOkVBKqXsCsf+n+0h6BkidZWdI9hKC1jiX3XMbXXl5GyUiA2dzw8LWsfq6Mlbd3LVL0/9az8MbuVGvPHZTc93OCe0opHQ2xF39O48w7eGQkZ3eesLFz+NrSkq5RFJ/KIX5DJbGVW1nW3e6SqyqZ8kyQ+dP6XjhK0vuRSfaHM2l7ox2O9ijttL8GicMnWueyE1W8Z4nmGqrqZ7Bw00A3+hKEVlVRd+dCNueetV1KSoo6ls7ZQtcZVYK2N/JZ+L2FFHR/D1ZXsrFkDevndpVUTMth1p83ELp9HoVJa7MkpbYkhF4JQt9fSnTRYyzOBpzAXjpj+SVzmP/x7pArHmL1Q1XUFj/JvAkZxMJbaJqcw6dfCRLsXj4RKKLxtZ47i9lcnd1nGNfoYu6YuYCfvRij9PYMQv/eSNm0RwjA2Z1/Lyezd/6vkZnkAGT1zgh2WRqQOBfT8Uu6EBXe+QBjP7mEJaPmM/1/x9lSv4KGGJSMPMczEbY1cP8XNzH1e09SdPnx1dH191PZNJWVtUWcYkCtpPNeETMqZ9A11j5B9NkVVD3WSFFVKTlECNXHKPhynGAweHSNnFgLbXugcPSJtilJOhODHnolXlrBkmcKmf21NoLBNti7gzhxdoSChAsLKRjtKZ/0XgXyCykq6hm9UET+Oy1MfLyRshWlcDgBh2NEtoV7L6g+MJXFYzMZOMYKUFQym8p1QWJTAmypn830rzo9vaQhLruURzdkUrcuTLgjwKQlyxnx+UUw6kTnHW+f+T73h6i+55vw1XrmTTh+P4nmau79Bjzwk3kUDhCISRpqcigoKjo6aquoKEBsYiUNzaXMm5CAWD77omHCb/Wukb9oKtke/5J0zgx66NW+bwQzPjWC+LZw12Sw+6LEiRMNhwl/sMDQSzoLMi7PgtfaaQdyLs+CSwoonVvG8Q/WDDx2KzB5OhV3r+XpwixqZ01loZmXpFSQWUTZ3KKuv7fXsJQZLBs3wHIjM8nh57S1QWHPvF5tO2icnMPi093X/gh1D97Ljs/V8+jtx/e+iZ113P/XO5jzk0cpzR5gfUkpIIOMzBjRjnjX3+Mi5EyeTcVkr3ckabAM+kT2OdMqqJjb5zP7j8kmmz+eXUHZBK+spTOVaGti9WO1FP5ZEQVAoGg6Fb+tompd70Sp0fVLqX7pJJPEZxQytTLE0m/UUlFSxHs+Mi8PkMVGgtu6v+8NEmx6rxuRpHNgf5xosIbKeRuZ/vXZ3XPtAHsjvW9Syyhg0l+EWLsu1D2XYZSGp+ooLC4Y4ObBQKI0PDiLuquW88gAgRdtDdz/53Vc/XePGHhJqSoRJ/yj1ayOzWZqYQAooOSuYmqW1xDqOQWLh6hZ1kD0hHMLSpLOVHImspd0VjXeM5G8e7q/5BZS9tl61pR3X8pdXsTCHz5A1UMzyfuHEeTv3wcfn8/yb50sysqgcHIZmfUw9aPv425koJiKFRu5a0YeVUBmUQXTP/jeNyNJZ1NsfSUT79lO4cwy7v7+Gko+1Nu/hX80i5mRr/HrqhIyCVD8lZVE5t/LtVMzyN8fITFlGY9/puAkW++juYEF62LATK5d3reihEe3rCR73QIaYsAnr6Wqb/Wtj/LrFaW+vEMasqqYmddzVGeSP20GD/xwIcUju0pyPvMo9fH7uff6iWR86DIiibFUfPVhck7wJlhJ0pm7KBqNvnvw4EEOHjzIO++8w/jx45PdJknnyv448UsCBE4jx4o/t4SbQ9PZ/JUzmFz5cIL4WxA4nR1K0vnoPfSbknR6EsTjnh9J0tnU0tLCpZdeSnp6Ounp6aSlpZGWljb4jzdKSqLLT+PCLREnHgtS+1iIOZ8oPLO3iV2S4QmdpKHtdPpNSXpPPD+SpMFi6CWpn9hzD3H9bUvYUbqMigHeNiZJkiRJ0lDgnF6S+sm89VF23ZrsVkiSJEmSdGYc6SVJkiRJkqSUY+glSZIkSZKklGPoJUmSJEmSpJRj6CVJkiRJkqSUY+glSZIkSZKklGPoJUmSJEmSpJRj6CVJkiRJkqSUY+glSZIkSZKklGPoJUmSJEmSpJRj6CVJkiRJkqSUY+glSZIkSZKklGPoJUmSJEmSpJRj6CVJkiRJkqSUY+glSZIkSZKklGPoJUmSJEmSpJSTdmxBa2trMtohSZIkSZIknTXHhV65ubnJaIckSZIkSZL0nrW0tAxY7uONkiRJkiRJSjmGXpIkSZIkSUo5hl6SJEmSJElKOYZekiRJkiRJSjmGXpIkSZIkSUo5hl6SJEmSJElKOYZekiRJkiRJSjmGXpIkSZIkSUo5hl6SJEmSJElKOYZekiRJkiRJSjmGXpIkSZIkSUo5hl6SJEmSJElKOYZekiRJkiRJSjmGXpIkSZIkSUo5hl6SJEmSJElKOYZekiRJkiRJSjmGXpIkSZIkSUo5yQm99jRQmZdHXr9PNaGkNEYaymI0zO9/LE35ZCVL10dIJLtpknTeSRDb3kjtg+UsWh87ri78RCVTuvvSidMXUbfzJD3p3hA186d0970TmfWNBiL7j9ninjCNTyyh/L4Gjt3bydsiachpru5/bTPxFmbdV0Nob7IbJkkXtuSEXoeAzHk8uXUrW49+KihMSmOkoa9k6bNHj6X6r0+l/RuzWNoUT3azJOn88Wod5VOvZeZ3f86m5ib2HVMdb1pKecN4lm/dxa5du6j/wttU3VdLeMCNxWn6u0o2fng5W3ftYteOej6995vc+4OepSPUlU/h2s9W8fNfhWg6Jgw7VVskDVXzWNNzbfOLx7k7cyMzK2qJJLtZknQBS07oFYvS+NGryQ8ECBz9ZCSlKVJK+MCIo8dS5rgy5twVo3Zb/1OseGuIxvoa6hpDRPvmYYkY4WCEeDxKU30twT3d5YdjhJsaqH2igabt/UchxHcGCe9JdG+zloamMLHD5/YnStIZCRSy8Kf/xfNrHuCOq46tTBD+j1oK7yqlMNBVknPnHMqanya4faCNRQg/GWPq5EICAJfkUHL7dMK/2dk9omsEhX+znv/atIYHSrPfY1skDV2X9bm2yaF49hxKmrewfc+p15QknRtJCb3iHe0wEtqbm2hqChJqdUSKdPZEiTRD2Yfyu78nCD9Rzs2fW83LHRBvXs1dNy+goa27em+QFbMWUV75l6z9zwixGLCniSVlt7H02R0kEjvY+M3bmPmPoaOPTEaemcWihZVU/t1Goh3tbFldzm1/24RHsqTz1uh8Ckae6AZbnFgb5Ofk9CnL4epbwyQGfMIxh5xbIdre2+tFXg2RmZvZFYKRSf64ACe8nXfStkhKFYlIC6FxNzB2dLJbIkkXrrRk7DSxvx2eXUEVJRQQpuHJMNlL1vDkXxQkoznSkBeqXsCsf+n+0h6BkidZWdI9XKH1aaoezuCBzSvpGnBQQcmHK5nyUB0T1pTRdYmXyZxH6rvrEwS/cz+hySupv7ew66LtrqlUlVWy4sbNLCzqvlC7cT5reupLcpg1dQvhrxZT5HWcpCHqsktOd8lMShet4eV7bqf8V6UUHA7REJvBmr8vOnHQJekCUMfSOVu6+4EEbW/ks/B7C/EKR5KSJymhV+Ytj7B1WoDA5V3f58+oYmZZHU13PkxxIBktkoa2/JI5zP9498ETD7H6oSpqi59k3oQMYuEtNN15B4/0ecImp+hPKFn4S7bHekKv8WQfrY8QqofpNYW9F2+XFzK1JEbl1ggLi7pO3bLzc3rrMy4jQJTYXsC7mZIuANHfbCR4WQkV0yaR1XkZkepNNP12NgUTjL2kC1cRMypn0DXWPkH02RVUPdZIUVUpOadYU5J0biQl9CIjQN9sK+PGqUxnJuGdD1M8ISktkoa0QH4hRUWZ3d+KyH+nhYmPN1K2ohQOJyA7k8y+K4zMJIcEiQHn4UpArJCckf1LMzOLiMV8J6Sk1PX26c5NGG+iZn47FZuWUZYLUETx2Axuv6+W4g0VjuqQLlg5FBQVHX05V1FRgNjEShqaS5nnNY4kJUUS5vSKEXyyhqbW/qVvU0CGN0elsyLj8ix4rZ12IDAyB5ojRPsusCdKmBwyRw60diaZkxtpea1vwJWg7bUgRZmZA60gSUNcgMxsiET79pRRdjxTROaoARbfH6edAvJz+24ii+ztUWJObijpqAwyMmO0d9gxSFKyJCH0yiTw1tNU/TR4dNLr6Lq11I2bQdG4wW+NlGoSbU2sfqyWwj8rogDI+Oh0FnZUUfNM9xsYD0dp+Icq4vdOp3DAoDmHqZ8qoWZNLeHugzT+Ug1Vq0r4dLGD8yWlogwKPj6b0A8aCO3vKomuX0vdhKkU9ARbeyO9L94ZPZYbxtXxdE+/SoLwsz+jsbiAsU7TIAkgESf8o9Wsjs1maqEdgyQlS1Iebyy4azmzv/Elbs5LcFlulLczylhYPdvHAaT3qfGeieTd0/0lt5Cyz9azprz7iMooZN73vsbS+28j7zuXkdP6NtnlX+P/b+/+g6MqE/zffyAJTWFVW/jdpvRWurDaMBZ0nJJWK9MU35tkWehcv5DITDbObgzjxMBshFlh8lW5Qc3AjCnQaXHGZPgqkR2J7GJvdth0LE3r8qWda9G7tdJhlnTc0TZFqnNLKl0XyrMl5QGj94/Oj84vEEjScHy/qk4J5zk/nqbqHJ/zOc/znN8+6plywmXHuj3qOPukHr17v7RYSsijne17VMp8XQAsyl5Ur30f1WpbfqFs3/lCcbNYu1tG2yaxw5Uqj+/Sv/l9csitql/vkP+ZtXI9f7Pyzsdluut0yF/BvD3At5pf5S7/0J8dyltVph1/X6eiSXvWAwBmw5xEIvH1xYsXdfHiRV24cEH5+fmzd3bTkGHaZLczrhGYFecNmTa7bN/4C2WmDENcowC+PQZNGZ9fwX3vvCEjyy5ukwAAAJnT3d2tefPmKScnRzk5OcrOzk4tGa2VjUYiMKsW2Kfs3TU5m+z0yAfwbZJ1hfe9BWM/zgMAAIDrRwbm9AIAAAAAAABmFqEXAAAAAAAALIfQCwAAAAAAAJZD6AUAAAAAAADLIfQCAAAAAACA5RB6AQAAAAAAwHIIvQAAAAAAAGA5hF4AAAAAAACwHEIvAAAAAAAAWA6hFwAAAAAAACyH0AsAAAAAAACWQ+gFAAAAAAAAyyH0AgAAAAAAgOUQegEAAAAAAMByCL0AAAAAAABgOYReAAAAAAAAsBxCLwAAAAAAAFhO9vgVfX19magHAAAAAAAAMG0mhF6LFy/ORD0AAAAAAACAK9bd3T3peoY3AgAAAAAAwHIIvQAAAAAAAGA5hF4AAAAAAACwHEIvAAAAAAAAWA6hFwAAAAAAACyH0AsAAAAAAACWQ+gFAAAAAAAAyyH0AgAAAAAAgOUQegEAAAAAAMByCL0AAAAAAABgOYReAAAAAAAAsBxCLwAAAAAAAFgOoRcAAAAAAAAsh9ALAAAAAAAAlkPoBQAAAAAAAMsh9AIAAAAAAIDlEHoBmMDoCqjlaCLT1QAAAAAA4KplLvQaTCryWoNqK9eoYEtQyYxVBLjxGR+0aGtJgVwul1yuAq15rEXRc1d/PLP/mBp7uCoBWI2pZE9IrU9Xa3vHuHvcYEKh3dUqdLnkcrlUULJVrT3m1Ic6H1PrlsLR+259QPHz4852JqbQaw2qfmJiOydxtFGVBalzuYqr1fy+MVQSVfNQHSYsdSHaS8D17HxcwbT7iKu4Wo0dcV3iTgIAmGEZCr0SCj6xVv7Tbm3c06Z3G31yZKYiwA3P7GpW9eZurXjhXfX29qr343e1M69T5TUtimW6cgBwvfgooOripSr/1ds61hXWZ2MKTUVeKNcznz+oto971dvbq7afSE0/blJk0qdVQ+Hnq9V+516d7O1V78dt2mL6tf3w8F03rkB1oZb+lV9vvx9VeFwYpo9ata1+QA/+U+pcJ5+/R8fq/AqfkySPNvem1o8uJ7Wv3KGa9UW0l4DrVkLBpyt1MGuD2j5MXbsf/u4BDfyyUo1HjcvvDgCYERkJvZIdjXpWO7S3oUKeXLvsdlsmqgFYQELtL/llf7xOFcvsqVVZdnk31Wlz/36Fu0a3NPqiCrW1KBCKKpHe9jKTikXiMoyEwm2tipxJK0vGhvaJKTk47tSDScXCQbW+FlR4XK8w45OIYmfMoXO2KhieZH8AmE12j+p+/6HeO7BDD9w+vjCm6D5pQ4VPjqzUGuf6DapIxpWcrNesGdPx1zzasN4juyRlOVX6VxWK/j4y9LLhZnn+Z4c+PHZAO0pzJ+yeiHYq+sMNGi6y31uqDZ5WHYtO8WDc16k3ejaqbCXtJeB6ZUYCevb9CtX9bZEcQ5eqbXGp6h53q/VImF6aAJAhGQi9koqEQqpYXyQzknpgjvTx9gO4KsYnioW9KrnPOXa9zast776rqmWSZCq6r1Lr6gNK2BZJXfv10OqtCg2HW+ciaqrcruraR3Twj3Elh1tl4UZV72xX4qwU73hUBRXNig33eDgTVkPFWjW+87FM82N1PrtW5S9FR7rvx9+q1Pa6WtW+0KnE2QEd31+ttT8PiysdQMbcmif3wqlCI4829/6bNt+VtqovrpgjT46Fk2x+LqmE8pSbnmflLpGvxxy6DzqUt8yuqc6WTEbkuz29z5ZTucukgfOTdSszFQn4pYd9ck/12wBkXPzDsJLrV8gz7sJ3rt+nk4xqAYCMyZ79UyaUeMutyKflit9XoXtscTVVPKs3nmrTi+ucl98dwKjzhgZk1z2TPFnZ7EMPXGZCyawy7W2qkGehpHU+ObVUTeE6+X44fM05tGFP20ivg+RpSbdt0M6mUqW28CmvulCB96u0c5VNkdYnFV25T23bPKlzPFQsf0Wtmu79g+q8Q5W5d4sODJf7nKosPq7YU0Xy0lEBwHUvoeBv/NK2tkvcs+Zf2ymyv+H+Z0I62FamjcdoIwHXM/PzmHSTbWLYnWWT3Z6JGgEApEyEXsmkPtaAPNv+oPqhbvpV/92v8s1BRddtlmfWqAm2OgAAIABJREFUKwRYnC1Pvk15Mvtjivxnqq9V3JAiyaSk4Yeo/LE9FiTpzlyNPmI55V7p1vaeuHausinaJpW0eEYbdgs8KvYlVXsyrjpvqi9Cbp5ztNw2X3YlUsOEbp2RXwkA08RU9KVtelY71PbDzAdNseB+9T+yW94Fma4JAADAjWf2hzfabLpZHuXnjb4Hsd21Qt5kt/rPXGI/ABNlDb1R/HJikWkYMkxJMhTZXa41u9vHzuV1hRY5hlMxU0p65Bw35Mfh8Cr5Jd8nAnBjS3Q8qdpwsfb9olSXjry+uLYTffkN9j8fUfurDlX5GNgIXO9s2Y5J22MaNGUYtI8AIFNmP/SyO+RcFlXi07R1hqEB2WTLmvXaADc2xzKtKArpeGx8mhVVy+rVau2RdCasg694tNtfrwqfV16vV+7brvxUiXhI7ptskhxyrAyp+3R6A85U/+mIvA5mrABw4zLe92vb75ZoX+tmeS7Vs2qhQ07F1d+ftq7/Y4VWOr7RvD0Oh1eh0+nTWifU3yM5F44dA5V4a7/a129U2eIr+BEAMiLv7go5jkYnfDk7+dZW3V0fYiJ7AMiQDExk75bvIbcOvh5UYlCSTMU63lDw/j+Xh+dl4Ao5VVZdo2PPPKNg33AIZSh++KAO5m5U0fLh7eKKDz2cmX0htYe+waFfP6jg8ANdf1AHD7tV9j23JKeK/9KnlgOtGs7ajA9a5H/FpweLMj8UCACuhtnVrOq6hDb8eorA61xc0eEP79jcWvGjqA4eGf6AR0LBfwjIU+S+TO+wFKenRJ7Do/dYsyuog9EqrXCnzQZkRhX8XVIbS71TTogP4Pph81aoblGjGl6KyBj+YnUyrIO/i6pqfRET2QNAhmRgInvJ+cMX9eKntSpfslVJSc6iOh3yl/I/A+Aq2FbWq21XoxoeXqqtfZLkUN66jdrXUpP60tetPtU9d1yPrHapQanrrWKlW/o89ZWxKR+m7s/XZ7sL5XorIcmpiudeHfoapORYt0cdZ5/Uo3fvlxZLCXm0s32PSpmvC8ANKanQq35Fk1L0/wxqa3rRtjb1/tSj2OFKlcd36d/8PjlkV9Hj+xTfsk1Li23KOx+XWbhbr/7wGw5D/E6V9jbE9MgPCtS0cL7i53K12b9PRWnDxo1wQP5FVXpv2XT+TgAzx6mKFztkPr1Nq5fEUz27Fhep5meHVL+KmewBIFPmJBKJry9evKiLFy/qwoULys/Pn72zm4aMQbvsTM4KTAvTMKSb7JMPFR40ZZi2K7/ezhsybVMcU6YMQ7Lb6YcA4FvqvCEjy66ruw1yDwUsyTRSbS6ubQCYNd3d3Zo3b55ycnKUk5Oj7Ozs1JLRWtns4r0HMH1sl/omdtZVBF6StMB+iaE1fIYbwLfcgmtpy3APBSzJdrVBOABgumVgTi8AAAAAAABgZhF6AQAAAAAAwHIIvQAAAAAAAGA5hF4AAAAAAACwHEIvAAAAAAAAWA6hFwAAAAAAACyH0AsAAAAAAACWQ+gFAAAAAAAAyyH0AgAAAAAAgOUQegEAAAAAAMByCL0AAAAAAABgOYReAAAAAAAAsBxCLwAAAAAAAFgOoRcAAAAAAAAsh9ALAAAAAAAAlkPoBQAAAAAAAMsh9AIAAAAAAIDlZI9f0dfXl4l6AAAAAAAAANNmQui1ePHiTNQDAAAAAAAAuGLd3d2Trmd4IwAAAAAAACyH0AsAAAAAAACWQ+gFAAAAAAAAyyH0AgAAAAAAgOUQegEAAAAAAMByCL0AAAAAAABgOYReAAAAAAAAsBxCLwAAAAAAAFgOoRcAAAAAAAAsh9ALAAAAAAAAlkPoBQAAAAAAAMsh9AIAAAAAAIDlEHoBAAAAAADAcgi9AAAAAAAAYDmEXgAAAAAAALAcQi8AAAAAAABYDqEXAAAAAAAALGfWQ69kR61cLtckS4GaT812bYAbXVLBLS4VPB2WMb6ko1auLUElJUkxNRe41HB0aKtBU4Zhzm5VASDjTCV7Qmp9ulrbO5JTb3YmpK0FLtVeapvzMbVuKRxpw6ypDyh+Pq28P6zGyoKh8kJVvxSZcJ82Pgqp+YlKlRe71Nw1vDaq5knbSS656kK6RI0AZFJXs1yucrX0jC9IXdOj1zgAYDbNeujlWLdPvb29Y5c36+UuqlPpXbNdG8AakoeelP/o+MepdG5VtXZoS5E99df/aNHdd7coOiu1A4DrwEcBVRcvVfmv3taxrrA+m3LDpELPP6PgJdMlQ+Hnq9V+516d7O1V78dt2mL6tf1wbKg8rtbHntRAeVuqnXNyr+4Jbx1znza7mlVd9YZ0/07taz+pmu8Ol3i0eXw7qfek9pU7VLO+SI5r/GcAMJOiany6RbHLbwgAmCXXwfBGU5HgfrkfLJEz01UBblDu5U511jcpcn6qLQwN/H+GPjMk45OIIj0JSQnFIhHFz6XK45GYkkZS0Y5WBXvMkf0SXSEFXgko1JWY0EtBZlKxUECtHWHFkoaSp4aPN2QwqVg4qNa2kKJ9xtj9InEZU5UDwHSze1T3+w/13oEdeuD2qTczjjapURtUd/8ljmXGdPw1jzas98guSVlOlf5VhaK/j6Qedvui6uyq0Ib1zpFzlz7kUWs4mrqPmlG1PH1Mxf9rnzYX5clht8uWdYnz9XXqjZ6NKltpu7LfDGCWeeRRo/yHE5muCABgSOZDr7527T9SobLhHigArljuwzu1Z027tv4moskHLcYVqqxU6LT02emYYv85IGlA8VMx9RvD5dtV++NKNf4/cQ0MGJIZU+vG1Xro1RMyZOjEqw9pdV1QI82481E1/3WBHu2Iy/z0hFqfLFd5TeocI+UVa+V/f0Dm2RPa//Bqbe0Y2vtcRE2V21X7N08q0DUgM/7P2lZcPcmQAACYJrfmyb3wMqHRubD8v/xM9Y9XXPpF3LmkEspTbm7autwl8vWYqXvw2aQiviVjemU5b8+Xzhmp8p6IDjor5LstrlBbiwKhmJKDU53MVCTglx72yX253wggw4pV/4t6GfUNCvRlui4AAEnKzuzpTUWDrdK238rLy0vgGixS0c/2qKSkUU1/0aa6e6e+oJyralRzi6nGQ1LZphp50sq8/3fHyL6JtifVYNuh95pKhx7+fMrfUqiGtuU6UO5U7HCD/Hfs08nnfKmeDpvK1LphzVBvMFOR5lp1+g6oY1PqMa1mlVOVfx1UdN3moXM69GDDPpXmSlKV3Fqqpv9IqGYZfT4BZIKpyMtPauBv2+S7VQpedvv5ly7OmnqLZH+3kgNJNdTlyVOYJzP8qLa/UqG21s3yLBi38ZmQDraVaeMx7o3ADWFZjXY+1al1zwflHWlDAQAyJbM9vc6FFdjr1oM+/ncAXLOFRdrScIcCP29SdMphjpeSqyW5w2FZUj2RsErv96Y11pzy+nwKR3qUVFL9sZh8/31oaI8k6WbdPPKXuKJtSblvMhSJRFLLgORMdqv/zPA2+Wm9JGyy3SRFkkzRDCAzzA+a1Ni/Q/XrZ75NMtAflW6u0O5Du1W3qUb1Ta/rxdv82n904j0wFtyv/kfK5B0fhgG4brkrd6ru061qPMIwRwDItIyGXonQGzpWW6aihZmsBWAdjvt3aNedATW8HL3EJM3fjGlKzkVjp0y2L3SmCjTyn6n2lpJ5+iwRU+zU8GIqb3uxcnlwA3C9OR9V089D8hQ51B+JKBKJ6mNDMuJRRU4lpxg2/sWljzl4iS1si6TleWNeKixf6VXo9LgH5PMRtb/qUJWPgY3ADcXmVs3P65Ssa1SwP9OVAYBvt8wNbzQjCuyV6gJeMbIRmC4O+R7fpbfLGtV0TRMe2+XIld6IJ6R7Rx/LBvpjUm6x7EPlxudTPdLZZFsWl3NllWomq8dV9UQDgBmSNHRzaYVuPhtT7KwkfabEWcno71bsTw6573KMbassdMipt9XfL3mGe6z2f6zQSqfqJekWh7yhj5WURoKtxOluKTfVO9a22CMd6VdSnpF5v4xzcTmyx94vE2/tV/v6jfrD4pn64QBmiu2uGu18vFLVew/KIyk/0xUCgG+pjPX0Sr5zUM2FD6qEhhwwvW71qe6pXEWORKbe5haHvBqQMWX4ZJPHVydjb4tCw6Nt+oPy7zVU5/PIJps8hZsVf71V4aFy46NOvf3W8P5u+R4qUsveFkWHP8poRNWyO6jElJM1A0CGLC5SzaaatGWD/vx2Kbdog2rKh4Zxn4uPfmXW5taKH0V18Eh0qBdYQsF/CMhT5E6FXIs9Klke0MHhj3ecjyr4elRV97llk2T3lqjm3w8q8MHQ8c6FFPjdIm34Xt5oncyogr9LamMpLweBG5NN7h/Va8PpoEKZrgoAfItlKPSKqf3lqDavLxLfbASmn3NdnXasd0y9wWK3Srydqs53qbZj8nm0bMs367e7bDq41qXC4kK5fvCGFu36rTYvTz1+2bxbdOAvE2oocMnlcmldy4CcK9Pq8MMX1ebr1ra7C7SmpFCusiYN3Ldczqzp/KUAMDtihytV/puIUndMu4oe36eSrm1aWrxGawoK5c+q0+4fDg9DzFPVr3dpfnO5CkrWqDC/VsdXvqi6VUOtngVe1f19hRKP3y2XyyVXiV/m43tVs3w03jLCAfkXVcm3bJZ/KIDps8Cjmqfqxnw0CAAwu+YkEomvL168qIsXL+rChQvKz6fzLfBtYRqmbPbL9yG45HamIWPQLvuCmFrWrpP5i15tXj5mAxmGZP8G5wGAG855Q0aWXVPfIg3pJrtsUwT+ZuoGSW8uAACAa9Dd3a158+YpJydHOTk5ys7OVnZ2doa/3gggo75J4DXldqdaVP1Eq6JJSV8mFTu8X/ttdSqa0CvBRuAFwLoWTB14SZLNPnXgNVI+/bUCAACAMjmRPYAb211Vql/Vopb6akUHbLrjvhLta6mSm6c3AAAAAMB1gOGNAAAAAAAAuGExvBEAAAAAAADfGoReAAAAAAAAsBxCLwAAAAAAAFgOoRcAAAAAAAAsh9ALAAAAAAAAlkPoBQAAAAAAAMsh9AIAAAAAAIDlEHoBAAAAAADAcgi9AAAAAAAAYDmEXgAAAAAAALAcQi8AAAAAAABYDqEXAAAAAAAALIfQCwAAAAAAAJZD6AUAAAAAAADLIfQCAAAAAACA5WSPX9HX15eJegAAAAAAAADTZkLotXjx4kzUAwAAAAAAALhi3d3dk65neCMAAAAAAAAsh9ALAAAAAAAAlkPoBQAAAAAAAMsh9AIAAAAAAIDlEHoBAAAAAADAcgi9AAAAAAAAYDmEXgAAAAAAALAcQi8AAAAAAABYDqEXAAAAAAAALIfQCwAAAAAAAJZD6AUAAAAAAADLIfQCAAAAAACA5RB6AQAAAAAAwHIIvQAAAAAAAGA5hF4AAAAAAACwHEIvAAAAAAAAWA6hFwAAAAAAACwnM6HXuahathTK5XLJ5SpQ5S+Dip/PSE0ASzBOtWprScHINbXmsVbFjEzXCgCuN6aSPSG1Pl2t7R3JcWVJBbe4hu6jo0tz1xSH6g+rsXqoLVOwRltfi8lMP1NP2n25uFqNRxNj6hF7bavWFKTOUVjdqHD/VFWOqfkHLrleil71rwYwSwYTCu2uVuHwPaS4Wo2hxOX3AwDMmAyEXobCL9Sq8869Otnbq96P2/TguWe17fXY7FcFsADzVLOqy9rl3P6mPuztVe+Hb6o+t13rftwirioAGPJRQNXFS1X+q7d1rCuszyZs8IU06NDmgyd18uToUvPdyQ6WUOCZJzWw7nX19vaq9816LfrHavnfH4q9zIiaftyuJb98V729vTr5crESGxsU6BsublJ1cIl2v9ur3t6TenVVQtXPBDTx0dhU7ECD/FMFbwCuI0mFnijXM8kS/fZEb+raby7RwDPlajjKm0gAyJQMhF5xxQ4lVbzSI7skZTnlW1ei2H98ovHvXAFcjqFwq1/2xr2qK3LIJkk2h4oe36vdNzeqNWRIg0nFIhHFz43uZfZHFfkgIcNIKBqJK70pZp6JpcqGz/BJRMHXAgp1JWSciytyKjmmN4OSMYU7WhUIRZVIO5DxSUSxM6aMvqhCba0KhmNKDs7UvwMAXIbdo7rff6j3DuzQA7dPtkFSiZBHS/LssttHF1vWJJv2RdQertCG9c7U3x1F2vgTj1pCERmSzH8/pmbPBpXea0+d+jtV2rgtptajMUmmou81y/NQqTx2SbIrr3Kj6mKtCvWMO09Pqxr+pVh1m6bp3wDAzOlpV9P7ZXrxFxVyL0ytsi+r0B5/mTr3BngRCQAZkoHQyynn/VJiYPTpOP5RVI7FjlQIBuCbM6I63uZVidc5rsAp90q3Aj1xKcshe99+rXk6mOpFYMbU8lit3hiYL7utX8e2Vqo1rRdB7B+r1Rg1ZJeU6Niq1X/dpONnDSVCjar+/iOqfDkyEoiZXc0qX+vX8U9NGV379dDqrQoODdGJv1Wp7XW1qn2hU4mzAzq+v1prfx4W7zoBZMSteXIvtE1dbhga0CIpGVU4HFakKzH1/epsUhHNH7PKkZsvvRNTQpJxLiFlacwWzts9isX6lZShZL+k7DGlct4XU/fp9Nd/MbU83anin9fIe9OV/FAAmRD713bF1hfLs2Dsett3V6ik54Q+mWoIMwBgRmXP/ikdKt1+QCceW6fq90vlHowqmCzTgV97dYmmKIDJnDc0ILvumeTiWeTIlaL9Ssoj5w93avc75Wo56lVN0q+Dt+/Sm/c7JDlU/JBU+35Um5d7JEUVeX2Ryv7OLRlhtTz2iTa+2aGaZZJUo6rvNWhp29AJzIia/qZTJX83Wl7krFTlkahKf+pJbXPvFh3Y5kld2z6nKouPK/ZUkbxc7ACuN+cNDahTTb+RfMukWLBasf9jpw4cqpJ7/La3OeXTcSXPSRrq0WEMJKSkU6ZSAZjj9IAGJDmGdhn4tF8yTUkO5d7pUP+nY0o1cFoy03rDJg771b6yXm132RQLz9ivBjBNzM9j0k22ic8zdrsWKaREUlJuBioGAN9yGQi9pMR/dCoy36eaVSu06L/mK958TOE/Vcm9nCdhYGY4VdFQp+qKtSqXV7vafSOPWp5VG7XoxxFFf+qRpyeqTkeZdi+TdCqmTpVo37LRo9huXjT6l4+iCiTd2vJZRJHI6HmSf0oFbZKUm+ccbfzZ5suuROoh8daZ/K0AcBVu9WnPSZ/s9qG71k/K5K8oV+BomXausk/YduO2g6p9olmq9kgfteuN30WklZ7UvXV5qXbcWa6GnXZtWbNIxvtvqOmtAcmX6tXuWb9Dd/ygQQ23bFHJnxk63takYFLyLRw6T39Qja+7tTPg4YUgAADANZj94Y1GWC1bBlTTWK+KIq+K1m3WvheK1fl0K2PdgSu1wK5FkvTlxKKBZL+UmzZseLFXJZ6kkp4/17L00GmZV2WOg4p0pbrm6/veVK+GL3Xpefa+lJJ3fKbEqZhiw8vneaovyuUhDcANyDYaeEnSAo+KfVJrT3zSbT0/PaBD5XYlTsU0cGuNdm4vkhYv0s2SJKdKn3tTdW5D8VNxfbFyl/ZWLZJ7kT11f8wt1Ytv1sl9Nq7YR19oRcNeVTncWnSLTVJCwd1bZf6Pe2T+MaJIJKLYp5I+jSkybg5GANcP203uSdtjqaHTXjlumfUqAQCUiZ5e5w0NyK2yxWnr7IuU23NCSUNiYi/gCtjduuf+kP75XxMqLU+f1yuh2PsxVTzoHgmgEkca5f+zOtX9v8/K/5ZXL94/3NfLLd9DeSp/v0W2kFT23NBAnlsc8iqeGo0zWYpls8n9iVPFP6phuCKAG14y0qr280WqWZV2L/1Sct881Q3OrjxflfIkSYZCT7SqYlXdaDMmyyFveY28kqSYWp5Nu79KksOrik2pUvW0qFFDvWyNpL74br1WKK7YqVRx4owkxRU75VSuN4+mEnAdci8vkeNvjinyqGdMu8iMnVDnsmJVLJ56XwDAzJn9nl633qF7lgXU/tZwHxJTsXf+WaEit+6gFQdcIYd8P6mT8XyDWrqG3v8PGooeaJD/szpVFaUNlamTdvxkszb/z43q3/msQmdGj+L0lsm9t1GNt1TJNzyccbFXZUUtOtg21LNgMKlwqHN0p2U+VRW1yP9KdPRLjx+0qPFIYmZ/MgDMAMfNptr3BhQZvqH1B3XwsFtl3xsKqs7FFe0b38/KlJGMKfjLWjUOvqjNvnENmUFTRn9ELVseVadvp6qWjdv9vKFEpEW1mztV8ouhucPsHlVsqlFN2lK2XNLyMtVsKtL4z5YAuE4sr9CulQH5d4eUGPrMtdkXUuOvAvI+WjZxbkAAwKzIwNcb3ar69Q7ZDq2Vq3iN1hQs1aPv36ND/goacsBVsN21WQeaV+jEz+6Wy+WSa8lqbf/jCu1r2Sy3TZISCjyzVWZjvUpzJS2r0s6H+/XM80Nfc5RSQx+LpKJSb9p16FTFrgNyvlWpu10uuVZs1Yms9CabUxX+NpX8aZvuLlijNcUurfvtgFbcx5UM4Aa0rEp7H06qYbVLhcWFcv2gSfMf3zsSVMUOV6r8N5G0Yd9RNbuWanWVXyecW9T2XOnYdsyZoGqXLNW6x9plrntVB346dn6uZEetXPnrtO2IqQdePqDNzGsK3OAc8v3ikDZkHVT5UpdcLpeWPvyGbA8f0p6R3vUAgNk2J5FIfH3x4kVdvHhRFy5cUH5+/uyd/bwhI8suO+08YFqYhiHTdjXXVEwta/2yNx+YtPu9aRiS3S7zaIPuPnKP/q2pVI6xG8gYtMu+YOK+AHBjMWUYpmx2O/MTArg6g6aMzzV2nkAAwIzq7u7WvHnzlJOTo5ycHGVnZys7OzsTPb3SLCDwAqaTzX7l15RpGIof2a/9tz+g4jGBV1Kh+mr5Q6nhjWZ/WPt/26nS+72a8L7SRuAFwCpsshN4AbgWWTYCLwC4Tsz+RPYAriMxtaxep4C7Rnt2jeu9JYd8j2/RwAt+bd37icxFHhVvOqQ9PrroAwAAAACuf5kd3ggAAAAAAABcg+tzeCMAAAAAAAAwAwi9AAAAAAAAYDmEXgAAAAAAALAcQi8AAAAAAABYDqEXAAAAAAAALIfQCwAAAAAAAJZD6AUAAAAAAADLIfQCAAAAAACA5RB6AQAAAAAAwHIIvQAAAAAAAGA5hF4AAAAAAACwHEIvAAAAAAAAWA6hFwAAAAAAACyH0AsAAAAAAACWQ+gFAAAAAAAAy8kev6Kvry8T9QAAAAAAAACmzYTQa/HixZmoBwAAAAAAAHDFuru7J13P8EYAAAAAAABYDqEXAAAAAAAALIfQCwAAAAAAAJZD6AUAAAAAAADLIfQCAAAAAACA5RB6AQAAAAAAwHIIvQAAAAAAAGA5hF4AAAAAAACwHEIvAAAAAAAAWA6hFwAAAAAAACyH0AsAAAAAAACWQ+gFAAAAAAAAyyH0AgAAAAAAgOUQegEAAAAAAMByCL0AAAAAAABgOYReAAAAAAAAsBxCL8DKjKgCrwQUNTJdEQAAAAAAZldmQq/+sBqrC+VyueQqWKOtr8VkZqQiwI0uqeAWV+paGrc0d0k6369ju4+p//wMnf2trXKtbVFsZg4PANPMVLInpNanq7W9IzmuzFD0lVoVDt1DCyobFfzkEq2Ty7RlzJ5WbS0pSJUXV6vxaGJMPeIdjaosGLpnF9eq5YMp3k6YMTX/wCXXS9Gr/M0AZkVX86TtMdeWoMbfbQAAsycDoVdCgWee1MC619Xb26veN+u16B+r5X+f2Au4Wr7Gd3Ty5MkxS813Z/68jqI6dTRXyD3zpwKAa/NRQNXFS1X+q7d1rCusz8YVG0f9qg3la+/JXvX29qqtfEDPPtY6Rah/mbaMGVHTj9u15Jfvqre3VydfLlZiY4MCfUO797Rq+y8H9OA/pc518vl8dVY0KnRu/HlMxQ40yN81jf8OAGbQZh0Y1x472eiTI9PVAoBvsdkPvfoiag9XaMN6Z+rvjiJt/IlHLaGIGIEFXKWbbpbdbh+z2LLGb2QoHokpmZYvm2diipxKjumdYPRFFWprUSAUVSL9ojSTikXiMoyEwm2tipyRTMOQYZhD+w8d/7yhRFdIgdeCCvdMfLeZOn6rguGYkoPT9Q8AAJdh96ju9x/qvQM79MDtE4vjPa1KFnnlsaf+7vQ9oJKeE/rkzCTHukxbxvz3Y2r2bFDpvamD2b9TpY3bYmo9morQkp+cUPS+P5c3d6hq9/pUdm9A8dPjztPTqoZ/KVbdpmv+9QBmxfwJ7TG73ZbpSgHAt9rsh15nk4po/phVjtx86Z2YElPsAmA6xBWqbFIkrSeB8e9Nqnx5OHA2FXutWqsf3q8TZyWja78eWr1Vwf6hjc9F1FS5XdW1j+jgH+NKJsfvH1eocru2bqmVP5SQcfa49v94rRqOjiZniY6tWv2zgLrPmvr4nUatrWhWdIaGXgLAGLfmyb1w6odP5+0+KZEcfQF3Oq6oI0+OhZNsfJm2jHEuIWVpzBbO2z2KxfqVHNrWcXpAA8OF5z5R7IMiOW5JP2JMLU93qvjnNfLedGU/FQAAACnZs37G25zy6biS5yQNNSSNgYSUdDKvF3CVjHhUkYh9dMUit7x32KfeYTJ97fLvtGnHH/apNFeSauS7s1aFzwS0/ECFUv0ZHNqwp22oXEqO75UgyfPoAdXdm3qw9N1WqcJ/j6l+lVe2voAaHpuvXSd2y7dQkqp0z86l2n+0QvvW0fEfQGY51tXrQHSb1lUfV+ldpqLBAZX93T55J8vJLtOWSQ+1hu9uA5/2S+ZQS2d5jQ58v1aPlnTL9/1FSvxDVIv271XF4tFTJA771b6yXm132RQLz9jPBjCtEopFImnPNHbledxy0NkLADJm9kOvW33auO2gap9olqo90kfteuN3EWmlh/HuwFUy+rsVO3Xz6Io7cq849ErGjiu8/gHtyR1d5/T+X/LV/W/1JIdDr3zl5k5xAElSrpZG8QH1AAAP8klEQVTkjrbs5t9kl/qHek7Ejiu80qkH/zOiyFC5afcqdDohcfUDyLT+HnVGbPLVFGvFnxma/0mTjr0XU9UyjyY8r16uLbO8VDvuLFfDTru2rFkk4/031PTWgORzyC5J52MKH+3Xsu/XqfguKX46ptZQjxKrnKl7bX9Qja+7tTMwybkBXMcGFD8VGxN62dyEXgCQSbMfeskmz08P6FCoXeFTMdkW12jndpsK31+kmy+/M4BJ5BZtUM219pYaNKVcx9j4aaFDTpkyp2PurUFTGkwqfio2+hB3U7Hq7yDwApBphsIv12qg5j3tLk9F/N6iO2Rbu12thR2qWTZ++8u1ZZwqfe5NOY60K3bKkH3lLu39b9XaLrtskmKHG3Tw7p36wyavbJK8Xq8WPXG3Wo6e1M5Vnym4e6vM/3FA5h9TLwnin0pSTJGIXW5vnq6wHy+AWXOPyjbVyJPpagAARmQg9JIku/J8VcqTJBkKPdGqilV1NOKADLIvdEpdcSXkGerVJelMQjE5VbxQ0oSvil0Z24JFUpZbpZsqRo8PANcFU8Y5yX17+t3JrkXOmE58akjLJmuhXKYtk+WQt7xGXklSTC3PSmXPpb51a34ekycvN60Xl12O26RoX0IyTH3x3XqtUFyxU6nSxBlJiit2yqlcQi8AAIBvbPYnsh9hykjGFPxlrRoHX9RmH004YGbZZFsW0vHo0BcVzYQi4eho6X0lqjvrV8tbQ+WDCQV/45exrUSeaeiWb/eWqOZPfvmPjH6yItHRqOYP+G4rgExz6I7vuhVoD418VdbsCemfQ0Vy5w21T87FFe0bf7+6TFtm0JTRH1HLlkfV6dupqqEeY3nfqVCoI6TY8OHOhdR+2KGipXmS3aOKTTWqSVvKlktaXqaaTUW8NAAAALgCGQq9omp2LdXqKr9OOLeo7blSGnHAjHOr6hd1SuwskMvlkqukUd0L8kaLbR5t/l+7ZDu0Vq7iQhUuKdcbC3fpt49O05wyC7yq+/sdWtRWLlfxGq0pKNAj/+JU0aQ9KABgdrkf2qsdtoNau6RQa0oKtHTzcd1z8MWRyeVjhytV/puIkiN7XKYtcyao2iVLte6xdpnrXtWBn47eS+2+erV974QevbtAa0oK5Srxy3z8kLZMOms+AAAArtacRCLx9cWLF3Xx4kVduHBB+fn5ma4TgBllyjAku/0SD1fnDZk2u2xZM1SF84aMLLsuVQUAyIhBU8bnl7lHTptvcD8GAADAZXV3d2vevHnKyclRTk6OsrOzU0umKwZgttlkv1znqgX2mf1i2AI7c9IAuD5lfYN75LSZzXMBAAB8+2RwTi8AAAAAAABgZhB6AQAAAAAAwHIIvQAAAAAAAGA5hF4AAAAAAACwHEIvAAAAAAAAWA6hFwAAAAAAACyH0AsAAAAAAACWQ+gFAAAAAAAAyyH0AgAAAAAAgOUQegEAAAAAAMByCL0AAAAAAABgOYReAAAAAAAAsBxCLwAAAAAAAFgOoRcAAAAAAAAsh9ALAAAAAAAAlkPoBQAAAAAAAMsh9AIAAAAAAIDlZI9f0dfXl4l6AAAAAAAAANNmQui1ePHiTNQDAAAAAAAAuGLd3d2Trmd4IwAAAAAAACyH0AsAAAAAAACWQ+gFAAAAAAAAyyH0AgAAAAAAgOUQegEAAAAAAMByCL0AAAAAAABgOYReAAAAAAAAsBxCLwAAAAAAAFgOoRcAAAAAAAAsh9ALAAAAAAAAlkPoBQAAAAAAAMsh9AIAAAAAAIDlEHoBAAAAAADAcgi9AAAAAAAAYDmEXgAAAAAAALAcQi8AAAAAAABYDqEXAAAAAAAALCdzode5uCIdzdpa0qzo+LL+sBorC+RyueRyFar6pYiMTNQRuO4lFdziUsHT4QnXSLKjVq4tQSUzUi8AuN4Yir22VWsKXKn2RXG1Go8m0spNxV6rVaErVV5Qsl2BT8xLH3KKtkz0paFzTFi2KpQcPtdoXQqrGxXuH9lbzZPu65KrLsQ9HbhedTXL5SpXS8/4gtQ13dyViUoBADIQehkK716jgpJH9UbohIIfjS+Pq/WxJzVQ3qbe3l71ntyre8Jb5T9K7AVMJXnoSa4RALiERNtWrXsvX3vf7VVvb69OPn+PohsbFOhLlRvhRlUH87X3ZKq87SdfyP9Eq2KTHu3SbRnPT1PHSF9O7quQY9ODKnJIZqRJ1cEl2v1ur3p7T+rVVQlVPxNQKoLzaHPv+P1Pal+5QzXri+SYyX8kANcoqsanW6a4bwAAMiEjPb3u+P6r+sPxd/TiI/dMLOyLqrOrQhvWO1N/t3tU+pBHreEovb2AKbiXO9VZ36TI+ctsmIwp3NGqQCiqxPgLajCpWDio1teCCveM7UtgfBJR7Iwpoy+qUFurguGYkoPT+hMAYAYl1RUOq7S8TG57ao393lJt8IWVPCtJpmL/2irPQ6XyDJU7129QRVe7IhN6baRcsi0zQUKdb8S0sdQrm0xF32tOO5ddeZUbVRdrVWiKc6mvU2/0bFTZStuV/GgAs84jjxrlP5y4zHaGEl0hBSZpcwEAplcGQi+7nN9xypY1RfHZpCK+JWPeZDpvz5fOGbrMIAPgWyv34Z3as6ZdW38TmfI6MbuaVb7Wr+OfmjK69uuh1VsVHB5Ocyashoq1anznY5nmx+p8dq3KX4qOHCv+VqW219Wq9oVOJc4O6Pj+aq39+cQhlQBwfXKotKlXL96f1row+/VxtEiOWyTJULJfynM60/Zxasn9MZmT3lQv05YZx4wE5FeVfMtGz6Xs+WPO5bwvpu7Tkz38mooE/NLDPrm/2ekAZEyx6n9RL6N+tBfpRAkF61Zr2z90y5ikzQUAmF7Zma7ApLKk+ZffCsCIRSr62R6VlDSq6S/aVHfvuN4AZkRNf9Opkr/rUM0ySapRkbNSlUeiKv2pW5HWJxVduU9t2zyySdJDxfJX1Krp3j+ozjt0rHu36MBwuc+pyuLjij1VJC8dDwDccExFX/ErsL5Of1g8unb+NwyxrkxSoUMBlVX/QalIzaHcOx3q/3RAGnnFN6CB05I5WQ/aMyEdbCvTxmPOSQoBXHeW1WjnU51a93xQ3qZSjb9yE20N2pq1Syef88kuSQ/do4b8/Qr95T6V3pqB+gKAxfH1RsAqFhZpS8MdCvy8SdHxwxw/iiqQdMv2WUSRSGpJyqnkn/qVVFzRNqnkL4YCLUla4FGxL6nAyfjIIXLznKPltvmyK6HkuZn/WQAw3RIdT6o2XKx9f+vVjOf2Pe3af3rs0ETP+h2649UGNbSFFQkH5d+yTa1JybnQPmH3WHC/+h8pk3fBTFcUwHRxV+5U3adb1Xhk/DDHpHoiYXlvk2JD7bHIH03ZV4aU+DQjVQUAy7s+e3oNSl9kug7ADchx/w7tOrpWDS8Xa29eWsGXUvKOz5Q4FUvrPp+n+qJc2WRKSY+cC8cdy+FVMklnewDWYnY1a9svpR3/tFmecUHSF9M+V6GpSHC/HA+3jR2amFuqF990KHAkpthZu1Y07NXNP94u3TIugjsfUfurDlUFGNgI3FBsbtX8vE6VZY0K3rdxTJFpSkrGFTs1er3fvLJeebfMch0B4Fvi+gu9bnHIG/pYSWmkO3DidLeU69HE958AxnLI9/guvV3WqKb0CY9tNrk/car4RzWTDEdMyLEypO7TpkpzhwtN9Z+OyHs73wkDYB3mJwE9+bOPteGfXlRpbnqJXY5c6e1EQrp3pPWhj9/yyvn4NZywr137j0wxNNHhVcUmb+rPPS1qVJl2Lxu7SeKt/Wpfv3HMEEwANwbbXTXa+XilqvcelEdSfmqt7AsluUtV80OGLAPAbLj+hjcu9qhkeUAHO4a6A5+PKvh6VFX3uWd+CAJgBbf6VPdUriJHIqPrlvlUVdQi/yujX0E1PmgZ6nbvVPFf+tRyoFUxY7TM/4pPDxbRIANgEf1BPfnXAS15Yc+4wEuSbHJ/r0rR14Mjw8MTHQcVWF4s93DgdC6uaN+VfL7DVDTYquSlhiaeN5SItKh2c6dKflE1tjeYGVXwd8mhLz4CuPHY5P5RvTacDio0ss4ur69G8b3+0Y8JDSYU3N2sKF8HAoAZcf2FXspT1a93aX5zuQpK1qgwv1bHV76oulX08wK+Kee6Ou1YP+YbqKrwt6nkT9t0d8EarSl2ad1vB7TivqFpldftUUfhCT16d4EKiwt09+PdKmvfw4SqACwjemSrgsmo/D9YKpfLNbpsCSopyV5Ur32+E9qWX6g1JQUqfGG+6p4bDaJihytV/puIJvu+4qTOhRXY61CVb/KhicmOWrny12nbEVMPvHxAm5ePjbaMcED+RcNffARwQ1rgUc1TdfKkrbKtrNOhpxbpjR+4VFiyRgUrHtH/vq1Ibh51AGBGzEkkEl9fvHhRFy9e1IULF5Sfn5/pOo0wDUO6yf6NPwkO4BswDRmDdtkn7XlgyjAku51+BQC+pQZNGZ9zHwQw88xUo4venAAwDbq7uzVv3jzl5OQoJydH2dnZqSXTFbsUm51XHsC0s9kvMT+eTVx2AL7VsrgPApgdPOsAwMy7Doc3AgAAAAAAANeG0AsAAAAAAACWQ+gFAAAAAAAAyyH0AgAAAAAAgOUQegEAAAAAAMByCL0AAAAAAABgOXPnzJmT6ToAAAAAAAAA1yw956KnFwAAAAAAACxnTOhFry8AAAAAAADcSKbKs+jpBQAAAAAAAMsh9AIAAAAAAIDljIReDG0EAAAAAADAjSg91xr+89zxBQAAAAAAAMCNZny+xUT2AAAAAAAAuGFNOZH9cAGBFwAAAAAAAG5E4/OtOXPmjB3eSPAFAAAAAACAG8lkgZdETy8AAAAAAADc4CbLt7KHV8yZM0dz585VX19fZmoHAAAAAAAAXKG5c+eOZFvD5syZo+zhsGu48L/+679kmqa++OILXbhwQaZp6uLFi/ryyy/11Vdf6euvvx5ZJI38FwAAAAAAALhW6b220jtqZWdnKycnRzabTfPmzdP8+fNH/jw+35LSenrNnTtXc+fOVVZWlrKyspSTk6Ovvvpq5CRZWVljQq9hhF4AAAAAAACYLuN7bA3nVllZWZo3b95I+DWcYQ1nWpP29BpesrKyNDg4qOzs7DGB15w5c/TVV19NGnoBAAAAAAAAMyE99Bru7TUcfGVnZ4+EYeN7hUlS9ty5c/X1119r7ty5+uqrr5SVlTUSbA1vPByCff311yNhWDpCMAAAAAAAAFyryT60ONyLazjgGg68srOzRwKv4VAsfYhjdvpBh3dOD73mzp2rwcFBSZp0Ti8AAAAAAABguk3We2t4SGP6Mn5o4/C+Iz290iemT0/JhufyGu7hReAFAAAAAACA2ZA+MX16b670ubzS/5ze22tC6DUceA0ODmrOnDkjQxrT/zsVwjAAAAAAAABcqcmGNaaXpQ9xTO+oNT7sGu4RNmfOHP3/de0WvmFUaU8AAAAASUVORK5CYII=;" vertex="1" parent="1">
          <mxGeometry x="200" y="170" width="1240" height="557.12" as="geometry" />
        </mxCell>
        <mxCell id="gm9-jVMxlqeCwL_lTwc6-30" value="" style="rounded=1;whiteSpace=wrap;html=1;fontSize=30;fillColor=#FFDD00;" vertex="1" parent="1">
          <mxGeometry x="200" y="110" width="1240" height="60" as="geometry" />
        </mxCell>
        <mxCell id="gm9-jVMxlqeCwL_lTwc6-3" value="" style="rounded=0;whiteSpace=wrap;html=1;fillColor=#FFDD00;" vertex="1" parent="1">
          <mxGeometry width="120" height="1160" as="geometry" />
        </mxCell>
        <mxCell id="gm9-jVMxlqeCwL_lTwc6-6" value="&lt;font style=&quot;font-size: 30px&quot;&gt;&lt;b&gt;Car&lt;br&gt;service&lt;/b&gt;&lt;br&gt;&lt;/font&gt;" style="text;html=1;resizable=0;autosize=1;align=center;verticalAlign=middle;points=[];fillColor=none;strokeColor=none;rounded=0;" vertex="1" parent="1">
          <mxGeometry y="35" width="120" height="50" as="geometry" />
        </mxCell>
        <mxCell id="gm9-jVMxlqeCwL_lTwc6-7" value="" style="shape=image;aspect=fixed;image=data:image/svg+xml,PHN2ZyB4bWxucz0iaHR0cDovL3d3dy53My5vcmcvMjAwMC9zdmciIHZpZXdCb3g9IjAgMCA0ODAgNTEyIj48cGF0aCBkPSJNNDM4LjY2IDIxMi4zM2wtMTEuMjQtMjguMS0xOS45My00OS44M0MzOTAuMzggOTEuNjMgMzQ5LjU3IDY0IDMwMy41IDY0aC0xMjdjLTQ2LjA2IDAtODYuODggMjcuNjMtMTAzLjk5IDcwLjRsLTE5LjkzIDQ5LjgzLTExLjI0IDI4LjFDMTcuMjIgMjIxLjUgMCAyNDQuNjYgMCAyNzJ2NDhjMCAxNi4xMiA2LjE2IDMwLjY3IDE2IDQxLjkzVjQxNmMwIDE3LjY3IDE0LjMzIDMyIDMyIDMyaDMyYzE3LjY3IDAgMzItMTQuMzMgMzItMzJ2LTMyaDI1NnYzMmMwIDE3LjY3IDE0LjMzIDMyIDMyIDMyaDMyYzE3LjY3IDAgMzItMTQuMzMgMzItMzJ2LTU0LjA3YzkuODQtMTEuMjUgMTYtMjUuOCAxNi00MS45M3YtNDhjMC0yNy4zNC0xNy4yMi01MC41LTQxLjM0LTU5LjY3em0tMzA2LjczLTU0LjE2YzcuMjktMTguMjIgMjQuOTQtMzAuMTcgNDQuNTctMzAuMTdoMTI3YzE5LjYzIDAgMzcuMjggMTEuOTUgNDQuNTcgMzAuMTdMMzY4IDIwOEgxMTJsMTkuOTMtNDkuODN6TTgwIDMxOS44Yy0xOS4yIDAtMzItMTIuNzYtMzItMzEuOVM2MC44IDI1NiA4MCAyNTZzNDggMjguNzEgNDggNDcuODUtMjguOCAxNS45NS00OCAxNS45NXptMzIwIDBjLTE5LjIgMC00OCAzLjE5LTQ4LTE1Ljk1UzM4MC44IDI1NiA0MDAgMjU2czMyIDEyLjc2IDMyIDMxLjktMTIuOCAzMS45LTMyIDMxLjl6Ii8+PC9zdmc+;connectable=0;movable=1;verticalLabelPosition=bottom;resizable=1;rotatable=0;cloneable=0;deletable=1;recursiveResize=0;imageBackground=none;verticalAlign=top;fontSize=30;fillColor=#FFDD00;" vertex="1" parent="1">
          <mxGeometry x="30" y="270" width="60" height="60" as="geometry" />
        </mxCell>
        <mxCell id="gm9-jVMxlqeCwL_lTwc6-8" value="" style="shape=image;aspect=fixed;image=data:image/svg+xml,PHN2ZyB4bWxucz0iaHR0cDovL3d3dy53My5vcmcvMjAwMC9zdmciIHZpZXdCb3g9IjAgMCAzODQgNTEyIj48cGF0aCBkPSJNMTIwIDcyYzAtMzkuNzY1IDMyLjIzNS03MiA3Mi03MnM3MiAzMi4yMzUgNzIgNzJjMCAzOS43NjQtMzIuMjM1IDcyLTcyIDcycy03Mi0zMi4yMzYtNzItNzJ6bTI1NC42MjcgMS4zNzNjLTEyLjQ5Ni0xMi40OTctMzIuNzU4LTEyLjQ5Ny00NS4yNTQgMEwyNDIuNzQ1IDE2MEgxNDEuMjU0TDU0LjYyNyA3My4zNzNjLTEyLjQ5Ni0xMi40OTctMzIuNzU4LTEyLjQ5Ny00NS4yNTQgMC0xMi40OTcgMTIuNDk3LTEyLjQ5NyAzMi43NTggMCA0NS4yNTVMMTA0IDIxMy4yNTRWNDgwYzAgMTcuNjczIDE0LjMyNyAzMiAzMiAzMmgxNmMxNy42NzMgMCAzMi0xNC4zMjcgMzItMzJWMzY4aDE2djExMmMwIDE3LjY3MyAxNC4zMjcgMzIgMzIgMzJoMTZjMTcuNjczIDAgMzItMTQuMzI3IDMyLTMyVjIxMy4yNTRsOTQuNjI3LTk0LjYyN2MxMi40OTctMTIuNDk3IDEyLjQ5Ny0zMi43NTcgMC00NS4yNTR6Ii8+PC9zdmc+;connectable=0;movable=1;verticalLabelPosition=bottom;resizable=1;rotatable=0;cloneable=0;deletable=1;recursiveResize=0;imageBackground=none;verticalAlign=top;fontSize=30;fillColor=#FFDD00;fontColor=none;labelBackgroundColor=none;labelBorderColor=none;noLabel=1;" vertex="1" parent="1">
          <mxGeometry x="30" y="150" width="60" height="60" as="geometry" />
        </mxCell>
        <mxCell id="gm9-jVMxlqeCwL_lTwc6-13" value="" style="shape=image;aspect=fixed;image=data:image/svg+xml,PHN2ZyB4bWxucz0iaHR0cDovL3d3dy53My5vcmcvMjAwMC9zdmciIHZpZXdCb3g9IjAgMCA1MTIgNTEyIj48cGF0aCBkPSJNNDk3IDI3M0wzMjkgNDQxYy0xNSAxNS00MSA0LjUtNDEtMTd2LTk2SDE1MmMtMTMuMyAwLTI0LTEwLjctMjQtMjR2LTk2YzAtMTMuMyAxMC43LTI0IDI0LTI0aDEzNlY4OGMwLTIxLjQgMjUuOS0zMiA0MS0xN2wxNjggMTY4YzkuMyA5LjQgOS4zIDI0LjYgMCAzNHpNMTkyIDQzNnYtNDBjMC02LjYtNS40LTEyLTEyLTEySDk2Yy0xNy43IDAtMzItMTQuMy0zMi0zMlYxNjBjMC0xNy43IDE0LjMtMzIgMzItMzJoODRjNi42IDAgMTItNS40IDEyLTEyVjc2YzAtNi42LTUuNC0xMi0xMi0xMkg5NmMtNTMgMC05NiA0My05NiA5NnYxOTJjMCA1MyA0MyA5NiA5NiA5Nmg4NGM2LjYgMCAxMi01LjQgMTItMTJ6Ii8+PC9zdmc+;connectable=0;movable=1;verticalLabelPosition=bottom;resizable=1;rotatable=0;cloneable=0;deletable=1;recursiveResize=0;imageBackground=none;verticalAlign=top;fontSize=30;fillColor=#FFDD00;" vertex="1" parent="1">
          <mxGeometry x="30" y="1060" width="60" height="60" as="geometry" />
        </mxCell>
        <mxCell id="gm9-jVMxlqeCwL_lTwc6-14" value="" style="shape=image;aspect=fixed;image=data:image/svg+xml,PHN2ZyB4bWxucz0iaHR0cDovL3d3dy53My5vcmcvMjAwMC9zdmciIHZpZXdCb3g9IjAgMCA1NzYgNTEyIj48cGF0aCBkPSJNMjg4IDExNC45Nkw2OS40NyAzMDcuNzFjLTEuNjIgMS40Ni0zLjY5IDIuMTQtNS40NyAzLjM1VjQ5NmMwIDguODQgNy4xNiAxNiAxNiAxNmgxNDkuMjNMMTkyIDQzOS4xOWwxMDQuMTEtNjQtNjAuMTYtMTE5LjIyTDM4NCAzOTIuNzVsLTEwNC4xMSA2NEwzMTkuODEgNTEySDQ5NmM4Ljg0IDAgMTYtNy4xNiAxNi0xNlYzMTEuMWMtMS43LTEuMTYtMy43Mi0xLjgyLTUuMjYtMy4yTDI4OCAxMTQuOTZ6bTI4Mi42OSAxMjEuMzJMNTEyIDE4NC40NVY0OGMwLTguODQtNy4xNi0xNi0xNi0xNmgtNjRjLTguODQgMC0xNiA3LjE2LTE2IDE2djUxLjY5TDMxNC43NSAxMC4zMUMzMDcuMTIgMy40NSAyOTcuNTYuMDEgMjg4IDBzLTE5LjEgMy40MS0yNi43IDEwLjI3TDUuMzEgMjM2LjI4Yy02LjU3IDUuOTEtNy4xMiAxNi4wMi0xLjIxIDIyLjZsMjEuNCAyMy44MmM1LjkgNi41NyAxNi4wMiA3LjEyIDIyLjYgMS4yMUwyNzcuNDIgODEuNjNjNi4wNS01LjMzIDE1LjEyLTUuMzMgMjEuMTcgMEw1MjcuOTEgMjgzLjljNi41NyA1LjkgMTYuNjkgNS4zNiAyMi42LTEuMjFsMjEuNC0yMy44MmM1LjktNi41NyA1LjM2LTE2LjY5LTEuMjItMjIuNTl6Ii8+PC9zdmc+;connectable=0;movable=1;verticalLabelPosition=bottom;resizable=1;rotatable=0;cloneable=0;deletable=1;recursiveResize=0;imageBackground=none;verticalAlign=top;fontSize=30;fillColor=#FFDD00;" vertex="1" parent="1">
          <mxGeometry x="30" y="390" width="60" height="60" as="geometry" />
        </mxCell>
        <mxCell id="gm9-jVMxlqeCwL_lTwc6-15" value="" style="shape=image;aspect=fixed;image=data:image/svg+xml,PHN2ZyB4bWxucz0iaHR0cDovL3d3dy53My5vcmcvMjAwMC9zdmciIHZpZXdCb3g9IjAgMCA0NDggNTEyIj48cGF0aCBkPSJNMCA0NjRjMCAyNi41IDIxLjUgNDggNDggNDhoMzUyYzI2LjUgMCA0OC0yMS41IDQ4LTQ4VjE5MkgwdjI3MnptMzIwLTE5NmMwLTYuNiA1LjQtMTIgMTItMTJoNDBjNi42IDAgMTIgNS40IDEyIDEydjQwYzAgNi42LTUuNCAxMi0xMiAxMmgtNDBjLTYuNiAwLTEyLTUuNC0xMi0xMnYtNDB6bTAgMTI4YzAtNi42IDUuNC0xMiAxMi0xMmg0MGM2LjYgMCAxMiA1LjQgMTIgMTJ2NDBjMCA2LjYtNS40IDEyLTEyIDEyaC00MGMtNi42IDAtMTItNS40LTEyLTEydi00MHpNMTkyIDI2OGMwLTYuNiA1LjQtMTIgMTItMTJoNDBjNi42IDAgMTIgNS40IDEyIDEydjQwYzAgNi42LTUuNCAxMi0xMiAxMmgtNDBjLTYuNiAwLTEyLTUuNC0xMi0xMnYtNDB6bTAgMTI4YzAtNi42IDUuNC0xMiAxMi0xMmg0MGM2LjYgMCAxMiA1LjQgMTIgMTJ2NDBjMCA2LjYtNS40IDEyLTEyIDEyaC00MGMtNi42IDAtMTItNS40LTEyLTEydi00MHpNNjQgMjY4YzAtNi42IDUuNC0xMiAxMi0xMmg0MGM2LjYgMCAxMiA1LjQgMTIgMTJ2NDBjMCA2LjYtNS40IDEyLTEyIDEySDc2Yy02LjYgMC0xMi01LjQtMTItMTJ2LTQwem0wIDEyOGMwLTYuNiA1LjQtMTIgMTItMTJoNDBjNi42IDAgMTIgNS40IDEyIDEydjQwYzAgNi42LTUuNCAxMi0xMiAxMkg3NmMtNi42IDAtMTItNS40LTEyLTEydi00MHpNNDAwIDY0aC00OFYxNmMwLTguOC03LjItMTYtMTYtMTZoLTMyYy04LjggMC0xNiA3LjItMTYgMTZ2NDhIMTYwVjE2YzAtOC44LTcuMi0xNi0xNi0xNmgtMzJjLTguOCAwLTE2IDcuMi0xNiAxNnY0OEg0OEMyMS41IDY0IDAgODUuNSAwIDExMnY0OGg0NDh2LTQ4YzAtMjYuNS0yMS41LTQ4LTQ4LTQ4eiIvPjwvc3ZnPg==;connectable=0;movable=1;verticalLabelPosition=bottom;resizable=1;rotatable=0;cloneable=0;deletable=1;recursiveResize=0;imageBackground=none;verticalAlign=top;fontSize=30;fillColor=#FFDD00;fontColor=#FF4E33;" vertex="1" parent="1">
          <mxGeometry x="30" y="540" width="60" height="60" as="geometry" />
        </mxCell>
        <mxCell id="gm9-jVMxlqeCwL_lTwc6-16" value="&lt;font style=&quot;font-size: 60px&quot;&gt;&lt;b&gt;@&lt;/b&gt;&lt;/font&gt;" style="text;html=1;resizable=0;autosize=1;align=center;verticalAlign=middle;points=[];fillColor=none;strokeColor=none;rounded=0;fontSize=30;" vertex="1" parent="1">
          <mxGeometry x="25" y="930" width="70" height="50" as="geometry" />
        </mxCell>
        <mxCell id="gm9-jVMxlqeCwL_lTwc6-27" value="Lista klientów" style="text;html=1;resizable=0;autosize=1;align=center;verticalAlign=middle;points=[];fillColor=none;strokeColor=none;rounded=0;fontSize=30;" vertex="1" parent="1">
          <mxGeometry x="220" y="120" width="200" height="40" as="geometry" />
        </mxCell>
        <mxCell id="gm9-jVMxlqeCwL_lTwc6-28" value="" style="rounded=1;whiteSpace=wrap;html=1;fontSize=30;fillColor=#FFFFFF;" vertex="1" parent="1">
          <mxGeometry x="1056" y="125" width="370" height="30" as="geometry" />
        </mxCell>
        <mxCell id="gm9-jVMxlqeCwL_lTwc6-31" value="" style="shape=image;aspect=fixed;image=data:image/svg+xml,PHN2ZyB4bWxucz0iaHR0cDovL3d3dy53My5vcmcvMjAwMC9zdmciIHZpZXdCb3g9IjAgMCA1MTIgNTEyIj48cGF0aCBkPSJNNTA1IDQ0Mi43TDQwNS4zIDM0M2MtNC41LTQuNS0xMC42LTctMTctN0gzNzJjMjcuNi0zNS4zIDQ0LTc5LjcgNDQtMTI4QzQxNiA5My4xIDMyMi45IDAgMjA4IDBTMCA5My4xIDAgMjA4czkzLjEgMjA4IDIwOCAyMDhjNDguMyAwIDkyLjctMTYuNCAxMjgtNDR2MTYuM2MwIDYuNCAyLjUgMTIuNSA3IDE3bDk5LjcgOTkuN2M5LjQgOS40IDI0LjYgOS40IDMzLjkgMGwyOC4zLTI4LjNjOS40LTkuNCA5LjQtMjQuNi4xLTM0ek0yMDggMzM2Yy03MC43IDAtMTI4LTU3LjItMTI4LTEyOCAwLTcwLjcgNTcuMi0xMjggMTI4LTEyOCA3MC43IDAgMTI4IDU3LjIgMTI4IDEyOCAwIDcwLjctNTcuMiAxMjgtMTI4IDEyOHoiLz48L3N2Zz4=;connectable=0;movable=1;verticalLabelPosition=bottom;resizable=1;rotatable=0;cloneable=0;deletable=1;recursiveResize=0;imageBackground=none;verticalAlign=top;fontSize=30;fillColor=#FFDD00;" vertex="1" parent="1">
          <mxGeometry x="1390" y="128.75" width="22.5" height="22.5" as="geometry" />
        </mxCell>
      </root>
    </mxGraphModel>
  </diagram>
</mxfile>
